<mxfile host="65bd71144e" modified="2020-11-02T12:34:57.861Z" agent="5.0 (Windows NT 10.0; Win64; x64) AppleWebKit/537.36 (KHTML, like Gecko) Code/1.50.1 Chrome/83.0.4103.122 Electron/9.2.1 Safari/537.36" version="13.6.5" etag="m0QAEZqRdDoCaNLdER7y">
    <diagram id="DBaB2lryMufKWzacmGt7" name="ページ1">
        <mxGraphModel dx="1193" dy="673" grid="1" gridSize="10" guides="1" tooltips="1" connect="1" arrows="1" fold="1" page="1" pageScale="1" pageWidth="827" pageHeight="1169" background="#ffffff" math="0" shadow="0">
            <root>
                <mxCell id="0"/>
                <mxCell id="1" parent="0"/>
                <mxCell id="40" style="edgeStyle=orthogonalEdgeStyle;rounded=0;orthogonalLoop=1;jettySize=auto;html=1;entryX=0;entryY=0.5;entryDx=0;entryDy=0;entryPerimeter=0;" edge="1" parent="1" source="8" target="38">
                    <mxGeometry relative="1" as="geometry">
                        <mxPoint x="483.5" y="643" as="sourcePoint"/>
                        <Array as="points">
                            <mxPoint x="593.5" y="330"/>
                            <mxPoint x="593.5" y="267"/>
                        </Array>
                    </mxGeometry>
                </mxCell>
                <mxCell id="2" value="" style="outlineConnect=0;dashed=0;verticalLabelPosition=bottom;verticalAlign=top;align=center;html=1;shape=mxgraph.aws3.rds;fillColor=#2E73B8;gradientColor=none;" vertex="1" parent="1">
                    <mxGeometry x="633.5" y="392" width="72" height="81" as="geometry"/>
                </mxCell>
                <mxCell id="26" style="edgeStyle=none;rounded=0;orthogonalLoop=1;jettySize=auto;html=1;entryX=1;entryY=0.5;entryDx=0;entryDy=0;entryPerimeter=0;" edge="1" parent="1" source="8" target="10">
                    <mxGeometry relative="1" as="geometry">
                        <mxPoint x="490" y="461.1431226765799" as="sourcePoint"/>
                    </mxGeometry>
                </mxCell>
                <mxCell id="31" style="edgeStyle=none;rounded=0;orthogonalLoop=1;jettySize=auto;html=1;entryX=1;entryY=0.5;entryDx=0;entryDy=0;entryPerimeter=0;" edge="1" parent="1" source="8" target="9">
                    <mxGeometry relative="1" as="geometry">
                        <mxPoint x="490" y="438.0130111524163" as="sourcePoint"/>
                    </mxGeometry>
                </mxCell>
                <mxCell id="44" style="rounded=0;orthogonalLoop=1;jettySize=auto;html=1;entryX=0;entryY=0.5;entryDx=0;entryDy=0;entryPerimeter=0;endArrow=classic;endFill=1;exitX=1;exitY=0.5;exitDx=0;exitDy=0;exitPerimeter=0;edgeStyle=orthogonalEdgeStyle;" edge="1" parent="1" source="8" target="2">
                    <mxGeometry relative="1" as="geometry">
                        <mxPoint x="448.5" y="643" as="sourcePoint"/>
                        <Array as="points">
                            <mxPoint x="593.5" y="330"/>
                            <mxPoint x="593.5" y="433"/>
                        </Array>
                    </mxGeometry>
                </mxCell>
                <mxCell id="8" value="" style="outlineConnect=0;dashed=0;verticalLabelPosition=bottom;verticalAlign=top;align=center;html=1;shape=mxgraph.aws3.ec2;fillColor=#F58534;gradientColor=none;" vertex="1" parent="1">
                    <mxGeometry x="483.5" y="283" width="76.5" height="93" as="geometry"/>
                </mxCell>
                <mxCell id="17" style="rounded=0;orthogonalLoop=1;jettySize=auto;html=1;entryX=1;entryY=0.5;entryDx=0;entryDy=0;entryPerimeter=0;" edge="1" parent="1" source="9" target="12">
                    <mxGeometry relative="1" as="geometry"/>
                </mxCell>
                <mxCell id="18" style="edgeStyle=none;rounded=0;orthogonalLoop=1;jettySize=auto;html=1;entryX=1;entryY=0.5;entryDx=0;entryDy=0;entryPerimeter=0;" edge="1" parent="1" source="9" target="13">
                    <mxGeometry relative="1" as="geometry"/>
                </mxCell>
                <mxCell id="19" style="edgeStyle=none;rounded=0;orthogonalLoop=1;jettySize=auto;html=1;entryX=1;entryY=0.5;entryDx=0;entryDy=0;entryPerimeter=0;" edge="1" parent="1" source="9" target="14">
                    <mxGeometry relative="1" as="geometry"/>
                </mxCell>
                <mxCell id="9" value="" style="outlineConnect=0;dashed=0;verticalLabelPosition=bottom;verticalAlign=top;align=center;html=1;shape=mxgraph.aws3.ec2;fillColor=#F58534;gradientColor=none;" vertex="1" parent="1">
                    <mxGeometry x="250" y="227" width="76.5" height="93" as="geometry"/>
                </mxCell>
                <mxCell id="20" style="edgeStyle=none;rounded=0;orthogonalLoop=1;jettySize=auto;html=1;entryX=1;entryY=0.5;entryDx=0;entryDy=0;entryPerimeter=0;" edge="1" parent="1" source="10" target="12">
                    <mxGeometry relative="1" as="geometry"/>
                </mxCell>
                <mxCell id="21" style="edgeStyle=none;rounded=0;orthogonalLoop=1;jettySize=auto;html=1;entryX=1;entryY=0.5;entryDx=0;entryDy=0;entryPerimeter=0;" edge="1" parent="1" source="10" target="13">
                    <mxGeometry relative="1" as="geometry"/>
                </mxCell>
                <mxCell id="22" style="edgeStyle=none;rounded=0;orthogonalLoop=1;jettySize=auto;html=1;entryX=1;entryY=0.5;entryDx=0;entryDy=0;entryPerimeter=0;" edge="1" parent="1" source="10" target="14">
                    <mxGeometry relative="1" as="geometry"/>
                </mxCell>
                <mxCell id="10" value="" style="outlineConnect=0;dashed=0;verticalLabelPosition=bottom;verticalAlign=top;align=center;html=1;shape=mxgraph.aws3.ec2;fillColor=#F58534;gradientColor=none;" vertex="1" parent="1">
                    <mxGeometry x="250" y="349" width="76.5" height="93" as="geometry"/>
                </mxCell>
                <mxCell id="12" value="" style="outlineConnect=0;dashed=0;verticalLabelPosition=bottom;verticalAlign=top;align=center;html=1;shape=mxgraph.aws3.lambda;fillColor=#F58534;gradientColor=none;" vertex="1" parent="1">
                    <mxGeometry x="70" y="180" width="76.5" height="93" as="geometry"/>
                </mxCell>
                <mxCell id="13" value="" style="outlineConnect=0;dashed=0;verticalLabelPosition=bottom;verticalAlign=top;align=center;html=1;shape=mxgraph.aws3.lambda;fillColor=#F58534;gradientColor=none;" vertex="1" parent="1">
                    <mxGeometry x="70" y="290" width="76.5" height="93" as="geometry"/>
                </mxCell>
                <mxCell id="14" value="" style="outlineConnect=0;dashed=0;verticalLabelPosition=bottom;verticalAlign=top;align=center;html=1;shape=mxgraph.aws3.lambda;fillColor=#F58534;gradientColor=none;" vertex="1" parent="1">
                    <mxGeometry x="70" y="400" width="76.5" height="93" as="geometry"/>
                </mxCell>
                <mxCell id="38" value="" style="outlineConnect=0;dashed=0;verticalLabelPosition=bottom;verticalAlign=top;align=center;html=1;shape=mxgraph.aws3.s3;fillColor=#E05243;gradientColor=none;" vertex="1" parent="1">
                    <mxGeometry x="633.5" y="220" width="76.5" height="93" as="geometry"/>
                </mxCell>
                <mxCell id="41" value="lambda実行Proxyサーバー" style="text;html=1;strokeColor=none;fillColor=none;align=center;verticalAlign=middle;whiteSpace=wrap;rounded=0;" vertex="1" parent="1">
                    <mxGeometry x="250" y="442" width="81.75" height="38" as="geometry"/>
                </mxCell>
                <mxCell id="42" value="lambda実行Proxyサーバー" style="text;html=1;strokeColor=none;fillColor=none;align=center;verticalAlign=middle;whiteSpace=wrap;rounded=0;" vertex="1" parent="1">
                    <mxGeometry x="250" y="310" width="81.75" height="38" as="geometry"/>
                </mxCell>
                <mxCell id="43" value="クローラーの設定情報" style="text;html=1;strokeColor=none;fillColor=none;align=center;verticalAlign=middle;whiteSpace=wrap;rounded=0;" vertex="1" parent="1">
                    <mxGeometry x="630.75" y="468" width="77.5" height="35" as="geometry"/>
                </mxCell>
                <mxCell id="45" value="管理画面&lt;br&gt;クロールJob&lt;br&gt;記事抽出" style="text;html=1;strokeColor=none;fillColor=none;align=center;verticalAlign=middle;whiteSpace=wrap;rounded=0;" vertex="1" parent="1">
                    <mxGeometry x="470" y="376" width="103.5" height="50" as="geometry"/>
                </mxCell>
                <mxCell id="47" value="記事の&lt;br&gt;テキストデータ" style="text;html=1;strokeColor=none;fillColor=none;align=center;verticalAlign=middle;whiteSpace=wrap;rounded=0;" vertex="1" parent="1">
                    <mxGeometry x="633.5" y="313" width="77.5" height="35" as="geometry"/>
                </mxCell>
                <mxCell id="50" value="puppeteer/&lt;br&gt;headless chrome&lt;br&gt;を使用して記事取得" style="text;html=1;strokeColor=none;fillColor=none;align=center;verticalAlign=middle;whiteSpace=wrap;rounded=0;" vertex="1" parent="1">
                    <mxGeometry x="38.25" y="130" width="140" height="50" as="geometry"/>
                </mxCell>
                <mxCell id="52" value="" style="shape=image;verticalLabelPosition=bottom;labelBackgroundColor=#ffffff;verticalAlign=top;aspect=fixed;imageAspect=0;image=data:image/png,iVBORw0KGgoAAAANSUhEUgAAASIAAAGmCAYAAADYn4l4AAAACXBIWXMAAAsTAAALEwEAmpwYAAAAB3RJTUUH4QgSBgMM/brVCAAAIABJREFUeNrtnXt8FOW9/9+zSQBRGhREsdgEezgFqyZaEMFLoqgoIAm1trZUCaL11ha059eetscCbT3Vc9oKXvFWQi3HC2ICohQREi6iKErwUu8ClXpBFCiIEJJ9fn/MLg1hdzMzO7s7u/t5v177ErNz23meec9z/T4ghBBCCCGEEEIIIYQQQgghhBBCCCGEEEIIIYQQIvfoDdwErI18bor8TQjlZZGWRJsG7AZMu8+uyHdKRJFNeXlXnLz8B6CXblP2CKj9Z7eEJHIkL0tIWZhosYR0O9BHt1EEgD6R/OglL0tIWSggCUnkioAkpBwQUCwhzZCQRBoFNCNFeVlCykIBxRPSV3TbRQr4SgoFJCEFUkAHdbI/3hJxbyTDlCoZhA+URvLTXk/5sUtSeVlCyoiAig8x/HCMYfWdYVbeFmb8+XZCehfSfUBfJYvwQN9I/vEuoPHnG1beFmbVHWHr6ipDt645KSQrYAL6GXAV0Nn13kccijVhhDHfqoCuXfb/bst2uHeBxcMNsLvZy7W1ALOAG4H1er6EAwH9EhgHFLreu0sn+M6ZcMUoQ8/if/3dGPhiD9ZDDZb500LYss3LtX0B3AXcDGyWiPwSUMkRcPkoQ/WpUNRBmm/eCvc/afHQUtiz16uQZkeE9LaeN9GOfhEBjfUkoM5FcPFZMGGEodehibfd2wL1z8B9Cyw2fpz1QsqkiJISkDWgBOvK0YTPHWgIufwZm7fC3QssHmmwE9Q9YeABCUm0E9AlQMj13kWF8O0z4cpRHQuoPa1hQotftMzd8zGvb8xaIWVCRMmVgAYPgB+MNpz69eSvxB8hPQj8FnhDz2Pe0R/4L+C7aRdQe4yBFa/CvY9bvOApK2ZUSOkUkXcBWRYFw04ifMUoTNlXje9X9tFncO8TEpJIr4CuGGk48jB/r8wYWPsOBfc9YbUufSlrhJQOEXkXUGEBjBoCl480/NuXU3+lH30GM+ZbzF2ejJDmAFMkpJwV0BTgIs8CuvAMuGq0/wKKJaS3N9kv2Ceeg3A40EJKpYi8C6hLJ7iwAmvC+Zijepp05zbrgy2WmTEfHlsBLa3JCOm3wKt6frOe4yIlIG8CKiyAb56OddXo9OdnY2DTJ1C7yOLRRi+dNF8A90SE9GG2iagT8AJwgqu9unXF+v45mEvONRzWLfPZ7/3Ndre/dyEZ4FHg1xJS1groV8C3PD0rEQFxxSjD0RkevmMMfLYDa9Yiyzy4BHbscpuP1wEDgdZUXF6qRHQ99uApZ/TsjnXZ+ZiLzzQHjAEKAu9vtqts855JRkh1wGQJKWsENBUY41lAVafaVbCjAzqg+ZL/tljzpi0o53n4OmB6Ki4nlKKfeayrrVtbMc17Da3hYCba0b3gxssNC282XHiGndHcC/+bwMvAXKBMz3ogKYukz8uR9HInocICuw1o4c2GGy8ProSMgT//3NBwi6FfHzd5eEC2Vc3uAya43qtbVxg3HC45x1B8SHCz6/ub4Y56i/mrvDQCRt8u8yMlpHV6/jNOQURAoz09E6EQjB4K11YHVz5RAYWN3RHz2Ar405MWmz5xc4T7gctzX0RRDu6CNfYcTM15wWgripf/NnxkhWfMJwkhAczDbtReIx9kREDfxW6I/ppXAYWuGk249EgT2F8ZFdCeZqxHl2Fm/tXiw0+9HCnPRBTloE5w8TB7yHvbOTdBFNId9XjsJo2yINIuISFlg4BGnkLo2ursENCu3fDQUpj1lOVxflqeiyhK5yL4VmVqBoClQkgLnnXTCNieJyNVNgkpaAKyLBg1JHsEtHMXPLgUZi2y2LrDjyPnuYiiFBXCmNOC0R2aiHf+AXfOs1i4Olkh/QZ4Tv4IgIDOHwzXVKVnYG0yAjLAtp1YDzxlmb8sdttNn0ciOqoHbN0BXzR7P3pkxHXg6+b+COmpSAlJQpKAEgvos39i/fkpy8xeDJ/vdn+c4kMoqj6NvbP+mgciuvgs+NE3Dfc/afHg08kJKZpRrrrA8O9HBzejvPU+1p3zLLPohWSFNBVYJb+kXkDW8EGYa6qCm6+i8gmH7XhbMxfacyW9PE8RARWdOwg6FbHrol/liYim1NhP46f/xC8hhc4ZSPiqCwzHlgZaSKHb663w4jXJCGlJpMq2TL7xX0ChcwYS/mF1MAXUVj7GEPrHFitc+1eoW+EtvlY7AUXJPxFF8UtIAJXlWFdXpWaWvoSUmwICQucOCraAwsYWUGsY/v6x3QA9f5W3ydlxBIQx7LlnPq1Pv5h2ERWk6NaNBk6K+c1xfaGyfP+/de0Mpx4HF1Xacnxjo9epFLDhI3h0Gax92+LoXtC7R/AyVo9izPmD4awTKfj0n5Z5z9NcwmOAGuAs7PC1G/NUQGOBh4ErgJ6eSkHnDiJ8648MPYqDJyADtLbaz8O7/6DgD3Msc+NfLF7b4H6oSPEhFF18Fl1+fCEFA0qh4MDHv/XFN0mQH9diD8T1ncJgPaBfgp9ebJgwIvkS0jOvwjOvWgzqD9eOMZwyIHiP0bGltN4+0fC3DRTcXu81fswZQCOwHHty7RKVgBwe5Oxv0HpNlQkHsTrfZhS09eb7FjMXYp5aQ6uXcWrxSkABIhhVs3j4WWULspCi/G0D3PqYRWNTMkfJZSH5I6CzTqL1h9XBbE9sWwp6exOhGY97r8IXH0KnMadTeM5AW0AW9rETsPvexwk/9UIetBFVnwY3/cDdXf1sB9z3hITkjmeBG3JESL4IiMpy+PE3g9uhEZXQGxv9E1DnIky7x9yKdUwLjGXxxW1zSZDvcmxA46D+8MNvGgb3R0JKkDjr3rXMXfPwQUhTgUUSUGlwf2kkomJSwzzaCQiwJdT2KTexZdTy2nqa5y6DV95LdIYcHVktITkX0q1z7XYv76zGHhi5KJ8EFPgeVJ8FZDp3OvDpjq5yEzYHVM1aX32PvQ8vdboCyN3YEVezRkS/iWQi5zLwKqQ/PWkxe3F+VNleehvuqLOSFNLzkfRZkLMCOvU4rB9fGGwBAbz1Psx43PvIe6cCiiEhlwKK8ttIdT9rRNQde0rC11zLQELKRyH5JiCuHWM4qV+wy3vJTv1xI6CohCLVMo8CAngTOAXYlk0iAjva3a3Y3ctISCkS0vRHLVa/nsxRXsRemWKBBJSlAnIgodZXPAsI7J7YH5PCIH7pWE6oArs7WUJKFavfgDvrkhVSE3aj9jw67OQNiIAGD4CJ38orAbUdB2QsK3F7kD8C+lXkvynNE+lcYDE5IXmRQT4K6fbHvK70GeXlSAmpPgWZzz8BXTPG/QsqmwXUuShs7GWq2j/ChQc8zW2rYG/83cu5owJK2/ShTCw57V1IJ/azS0hul5vONyE997rdhpS8kH6DHcvZBEJAXkvI2SygohiTH0JWOyn9S0bZJqBMisgfIV1dbTjjeAmpIyFNf9Ri7duZEpJ/Agr6vU6VgKwYj6gxmJC1b7arZSj8Yu2bxsxZZvHOP7JKQEEQUfJCOv4Y+NGFElJHPPOaXWVLTkivRapsToTkj4BO7Ge3AeWTgKJtQMbsL6G2x7XbgcIGwrtferPAzFlm8famZNqAMh7BwQpQciYlJOuaasyZ5UZCSpTtXoG76v0Q0k3A7BhC8k9AXqrguSCgtuKJiqj9sS2LbC8BBVlESQvJGlCCuXaMYdiJsYu0EtK/hHTbXKuD4fwd8Sb2ALfZ2At1SkB+CKi9eCzrX1IyhpbnXzfNc5dZbPgoJwQUZBFFKQN+DnzHi5CsK0cTPu/kMBjLlZDyaXKtf0IiKQF5rWLnmoD2fzLDhE3IhOzFmFufe80W0HpPsaseBn6H3d4XyNHmFsGnN3CLFyHRrw+ha8cQHj7QuC4h5dNctoYmy9xZT5JCkoD8EFCkRBRtjG597m8FzXMaLDZ+7FVA1wEfBVVA2SQiX4TEVVWG808+cOSphLSfkLh1rtfBb64E5KlNL8cFtG+AogWtz75mkhAQwCXEbseTiHwU0jrgcNd79u1td/uPHAwFIQkpHk+/hHVHneW3kKwBJfDjCyWgGE+hiUQta13xsh2Ow92a9LG4GfjPbHmos1FEYIe0ONnz3iVH2CNzR50iISWoHrBkrT0OyVvX8H4CMteOMZx9kqpgsUpAUQHNaYAPPvXr18wDqiWi1NEJeAE4IekjlRyBdeVoTNWpRkKKL6TQojVW+I463ArJcy9mnpSALGNoWb6O5kcb4cNP/f5Vy7F7oCWiFNEHO4RFb/+OeDhcOdrwzdNVQvJDSP362AMR80BAroLStxXQsia7BPTxVi9Xvgfo3ME2zwJDJaLUMQp4PCVHPqqH3YY05jR7WWun5FOQ/0RC8tpLmQ8CsiyssOGLpS9iHlvuVUDrsSMkXOOgaWI1dvwgiShF3AT8zMF2NdjjkL7mSUiXjzJcVBF70qGEZE8wWLoWVr5s56HTTlAJKE47kBUO80XDS5g5y2CLp7hib2KPA5oV+f/ngMESUWapB6pc/LaBwF88CemIQ+0qm4SU3WRAQLasw3yx5EXMYyuSEdD3sYPXtb1wiSgALKPj6R8fRoqubesOpwC1XoVkTRhhzLfPhC6dJCQJKDHNe2lZvIbmx5+x84A3AdVEZBLrwiWiALAKGNLBNk2RhIr19J8C/BlwH9avZ3esH4yUkCSgxAKatxK27vBy5W8DlyYQkEQUIJwkwvMOthkaqea5HxjZszvWZedjvjfMSEg5JCDLguP60vU/x7oT0J5m9i5ew976lbB9p5cr/wR7zM+zOBsJ7dczIBGlWERO3wZ9sGeQX4I9g9wdPb6ENWEk5uIzDV27SEhZXAIqrCij9fzBHNSzuzsB/XU1ex9/1quAwsAD2FELNvn8DLwMDIpTK5CIfMDJqGq3xdJ+2IsPfteTkA7tBpedbxh7NhJSHlTBogKa9wzs2OVVQA9id8V7CQ7ltZ1UIvIJp6OqvdaP+2NHIbzIk5CKD4Hx59lC6tY1c0K64RLDvx8tAfksoPCu3exe+Bw88VwyApoTyWPJBBR32nN8AcFcSDPrReR0VHWyw9uPi7ytxni6R926wrjhMG64yYiQDu0Gf73ZUHxIzjnImj7XMjPmZ0ZAj6+Cz3d7uWwD1EVK3a/6cBucjqXLmomvBVmWD88AfuBguybgoSTOsxl4JPLm6R0pKTmneS88/wY8tNSiea/FgBLo7CDjd+1sLxZ4UaX9knhjI7S0ur/63c1wVE873k8u8dLb8PN7LE8Cuvgsuvz4QgoGlEJBgWMBfVG/nJZpc2Dt27C3xctVzwMuxl5sdLNPd6IL8D0nr7Ykn4O0UZhlWfE0h9u94dP51mH3ZgyMlJBGuNp7xy64vQ5mLrSsS4djaoY7K6X0+BL89GLDhBHeS0gbP7LIklg0jktDK162jFsBeSkB7dxFy4JnaXny2WRKpk9GSkBrUnArmiJtQB3VDA7NlrQNZVledFoyWenzedcAI7F7Kp5yvffnuzF3zYOzrresP86xHPewRIW0+A+Gfn3Id8yn213mbouWzkWO5w2Gd+6iefZidl/zR1rmLvMqoaci+WRkiiQULbE7iZhWlC1pm20lIieG/zDyxkgFzwPDsccg/RoY5lpI9zwOsxdbfHcYXDbCcFi3xPs88xrW7x+yjNuYQCVH5lRpCIBDurrbfusOzD2Ps+vJ57C+dzYHDYrdo7j7H58QWvoSLU+9YFdrvbEEOzD9qjTciWacdctnTUEj2xqrkx1V7Tfel0ACOKgTfPdsmDDC0ONL+3/31vtw84MWz3ho2+zZHZ7475xrrLYamixz9R+97z+gBC45l4P6Hb1PQOE5DbDqNW+N3zaZWhkjp0ZXZ5uIgjqidBj2aqhDPO19UCf49plwxShjNe+1zK2PwbxnvD0cgwfADZca/u3LOVg3M4Qm3m6Fn3ohueMMHmBX15IT0LPADZGSUFCfBYkoT2/+cOxGbW8i7NLJfjD27HW/7/HHwE++k/sDGo2BJ5+HWx9NJrB8MqzGboRepGfBPwoRfrIo8hmFPWjtG6729tI+0a8P1vXfDn5Aet9enRaMHAznDTI8tgLurLdSEGY1Fi9G0nRBNt0tXWjq3kbZFJmuOlJCOsH3I5ccAT/+lmHEycEORpZq9rZgPbgEc88TlseYPx3xcqQEVJ+FtYOsmW+WTTk41dM7UnmPL4y8TZNfSzkaztZtfO1cZ9dumP003LPA8jj9oj2vRdJsLsEcj5VT882ySUTpmt6Ryut/wnPpqGd3uKbKfbTIfGPHLqw/LbTMnxd5nY4RLUmMDPgDnFPzzbLplVqOs5U7tgbsuvsAtwPveJJQ8SHwk28bnv694XvDJKGO6NYVM/FCexDouOFe79cJkfS6PZJ+QcTp7IHTsiHZsklE6Z7ekSylwIxIhr6Wjpd/2Z+Du8APx8DTvzdcMcpdREgBh3WDn481LP694duV7lZlsekcSbd3Iun4lYD9QqezB/pnQ3JlU9UsW4qifYFfAuPw0it5UCcYew5cMTL4AxJXvwELn7P4ck/7YQ/y9b6/GW59zGLBs17HDrVgr6JxI/ayPmqqyFMRBb1xrl9EQGOTEpCTaR+ZJlY8IMuCUUMIXVtNuDTA00uSjWVkC2l2REhvZ/CXdMLumCnvYLusWGgxm0QUtOkdbYu+/4XX6I7ZJqC7H09cqgiFYOQp+SKkh7FDDWeqOSDbhrPkhIiCNr3jOOw5RhfmuoBCGz6ywnfU46paEwrB6KGErhqdHUJqeMnrbPto1MXf4k/QM7+fCYkoR296WURA3qI3ZqOAnngOwmGPB7GFxLXVhqN7BffHJh8dM4zdjvlr7DhWEpFElBIGYo+wHeVp72wT0Iz5MH+VdwG1p7AAqk6Fq0YHV0jGwGc7khWSAeZHSkhrcvyZyEsRZao+fAr2LOsRnvbOpjag9zfDjPkW857xFqJWQmovpIXYU3yel4hyQ0SZmN7hLfiZBORcSN88Heuq0ZijegazDck/IS2OCMnvoGk5s9BitogonWMmkg92JgFJSLGFtBQ7bpVfQdRyZuJrtohoFPC4g+3mYc9498Iw7EbonBeQ9cEWe0mex1ZkTkDtKSqEC8+wq2xHHpbrVbYVkZddskHVcmbia7aIKJXrOA3HboT2Hl0xW0pAH31ml4AeXeZdQJ2LoNvBxA25cVQP2LrD++oX+SWk5yJVNq9B1nJm4mu2rGv2Q5zNmbkZeMtFKeuBiOCO9iSgmvNg2o8Mw06CgzoHW0C/f9ji5/davPwuhI0nARWOHELnn3wHs3krZv2HsbcbOQTumGTwui5bOAyvrofZT1t8+k+LAV+Bgw8K2OvbstegG/p1uOhMPP5WK5LvxgLnAx+5yLtRynE2B/N94GmViJLHryKoFam6/YqOh8Znfwlo81a4e4HFIw1eFwe0BTT8ZIqqTsP60sEA7LmrntalL8Xe/uKzYEqNbTo/Vq4tKrTjeV85ytAroMt0+VdCegm7299pELZ0NFlIRG1IdnpHNDjZDXiNByQB7cOxiKL4IaTORfaxJ4zIByGtw57L1lFQtpyZ+JotIkqmm/I47GV3v54XArr/SYuHlnoLwN+BgDyLKBVCumKUoWdxrgvpb9jLVcebOpIzE19zSURtxxCVAdcBA+h4EGT2C2jLdrh3QcoFlLSI/BRSl07wnTPzRUgvAK8A02JIKScmvuaSiF4EbgMmeW7/yVYBPdzgfYVSFwLaJ6K759H69IveReSnkBItUplbQmrbjjQNuxdsGzkyujpbROTE+mGSiTiZTQLyqYrjVkAYQ8uKl2l+cEni7vuJFxlGneI8uL9fQgp6+vkrpO2RNqRBZN+CElkpIqfTO3JfQJ/tgD89aTF7cXoFFA7TsvIVmh9txPEaYn17w1VVElJqheTmRS4RJYnTngEJKAgCCoqQDu6CNfYczITzgxtyN31Ckoh8wOlYidwT0PadWPcvtMzsxd6XxsmUgBIKqcBhG9J2i/uesHhoSXJCunQ4pmZ4Pgsp8BNfgy4i/xYnzDYB1S5Kbm2uoAjIDyFt2WbZwxIkJI8EfuJrUEVUAHwf+DnwNQkoBwQUNCFddr6hW9d8EVILMB54EGiViDqmE/YyPD/HXpYnGb7g8pEHZYWA/Fid1KuAVrxM89xlyQjoi6jys0pI3brCuOEwbni+CMkA7wL/g70sUrNEdCBdgMuwZ84fnbSA4FZW3fHTbBAQsxZZzFqE5/XaMyugu7AnGoM9efjqpIR09egwI4dYFIQSxKe1rJQI6Ydjghvg338hbcKOaHFfUISUaRF1Ba4C/oNke8WyqQqWOwLa3O67XlkrpEnfMlx6LnTtQlYI6U9PfuH5Hv9LSB9F0vFeYFc+iqg7cA32KOjD80ZAu3bDn5+yM1L2CWgP9tLLN2NHOkhE74iQrsLtUtuuhGRZvlXZLAu+dDCMPy+7hORPCWkL8L/AHZkSkpUhAf2/yL/zS0Az/2qxfWcuCyh1Qhp9ajh2vrUsX9uQokK6fIRh7Nn5KKRpwJ3Y00dyTkTdgZ9gBzjLLwHNfhrue9K7gLp0ovDcQZkS0H3Y4Sg+TPJO9MFu/7vcRyEllpEfQup+CFx2fj4KaTtwO/CHdAkp1SKKthlcAXTLOwH9aaHF1h3eBXTeYIouGJopAd2E/3GO/RZSxzLCWGzZTrJCsq4YhfneMEOXTvkkpJ2R0tEfObA9MGtEdDt2T9hBEpB7ARVWnUrokK7pFlAtdoTAVAda7wP8F1Djg5BMxzKSkJLkC+Ae7DbdrBLRfcCEvBHQ7mas/1timXsX4IuAunVNHJfPXwG1APcD/w38Pc137ivALyJ5pTD1QjL235MV0mHdsK68wJhvn0melZDuwW7vywoR9cEO1p0fAnqkAXPPE1bcsBgd0bmIwvNPobDqVKxuB2MZkw8Cak9ppIQ0zj8hdSAjP4TUoxjrByPzSUgm8vLYlA0iGogdtkMCCq6AZkWqYBsCdmf7Ar/0T0gOZBQV0tk/sTwFl8svIRnsuGBrclJE1oASzL3/EdyQn34LaPjJFI45PRNVsFnYvWDrg32jMyCkT/8J9z1h8eASPAupV3e4crThogp79ZEgs3krTPhfi7c3SUQHZpxqe85RKGBT4Pa2wJxlcPd8i4+3Ji+g9DZCtwCzsRfyC7qAYglpMnAJXqNvRoU0aqhFKGQSyihaYshlIYUNLHgO7qq3WO96VEYeiCiIQspuAYWxF5C8EXib7KZfpISUpJCi+aq9kNpV1fwS0pGH2cH9gyCk5ASUhyIKgpB8FFAGBiKGscM9TM0BAcUS0mTgu/4LyVhx21SSFVLvw+DyUYZvV0JhQTYKKI9FlAkhRQV07wLLswgyFw8olwXUnv7YvWw+C8nEzmB+CunqasOY01IvJH8FJBGlRUgtrVC30k60D7JWQL8F3iC/6I8dvfOipIU0emhiGaVCSN883Xkc78wKKAdFdMShsG2n94UA/RRS9gtoTuRBzDcBtee4SAnJu5D+5+o2pSOTOGP5JaQv97Qbtf0Qkh8C6lwE3Q4mQY9w7ogodO4gwrf+iMKf3k3LouczI6TWMDy2wm4D2vRJtgnIAI8Cvyb+UsT5LKRfAd9ynbctC0qPdJen/BLSV3phXTkaU3WqcS0knwRUOPxkikafRvNDT8dfPDMXRRTFFyE5Xa6mNYw17xnL3FlP0gIafRpWsQQUYCFNBcakTUj7lkBKk5Baw7aAZszzRUBW8cFgDHvumZ+fIkqLkKICuns+bPw4GwVUh91bJAG5oyxSQso6IXHNGMMFQw48byoE1Ob6815EKRES2Il2Z52VxQL6NbBOTklaSFOBKk9iyJSQSo+08/IFQ+xj+iCggnMG0an69Nh5WSJKkZDC4WwsAQHMi5SAJCAJyT4vkDIBSUSkXkgSkIidRydjryKcHUJKpYDasOfuefkhInp2p9N3h9F8rbuXUsqFlFkBLYi8qdfIEWkX0lRgRE4JyYOAMIaWZ16hefbTOdN9XwY0dbjVUT3odNGZNF89OrNCyqyAnoy8mSWgzHIysNrbExQgISUjoDkNOBhLZ4ATU1FiT4WIugOf4nRgmVch/ee9tCx8zruQMi+gqcDzckBgOCWSJudmnZCSEdDcZW6GsoSBHqQgoH6qJm894bq461VIv7yflgWrnAspGQHNbcTzCGybpyIloOf03AcSCxgSSaPMCOn/nnaVl1NcAor1Ah2ZqhufCvoCy/CyfHTnIgpHDaXlRpchr6fUQt2K+InYJiKiq3AcElA+C+nXwLC0CMkYe8rRR5/ZQuogL3sRUPPDS+2XdnOLfT53vA9UkKKYVqmczt4VuBZ7McXD0yGkgv+YQeuCVbF/6Hkn0+WKC7DCJp0CWoI9oG6Vnu2sFdIZwA0pF1JURLt2Y32+2+J/HsL8NXbNveDsb9D5yir3AvLWjPEJaVgFNpTCRNwV+QGlwE8jP8g5e/bSMncZlE2g8Jf3OyvAtLTEzw9h03Fc6HCYluXr2HXdbTTfNjcZCS0BTgXOloSyGhMp2Z8DVALL3R/B2ON/fjbDYuR/Wsx/1p4fFutMrWHY24rV3OLshdmRgB5awq5Lfms/R+4l9EnkuS2NPMcpXYo6lIbEbCukn6RSSKGW1o6zVRwB7b73cXaN/U2yAloeybASUG4KqdIXIZVNsJhSa9EaPiAfJn+lvgjoJ+kSUDqqZomqbFdhr/jpb5XtrOviS6TP4XSd9qP9ZRQOs/v+JwgvfckuFntneaQKtkzPbN5U2c6KpPkZno9SVAgXngH/dYkhFILmvbDzC0I7v7DCl/9v/N6so3rQdfrEAyTW/EhDslWwm4AZ6ZLPftXNDCTiXuDZSJ3zM+Ak4GDHe7eGCb++EWvJS3TCovW4vv/6MS+8iXkv9jD40Clfp2Bgf8DCMoaWFS+z+5ZHME3vxC4qOxfQOOyYQBv1fOYV67FXRVmBHcLWfcdMOAyvbYCFqy2+dDD821F2ySkctqy3/wHv/CP2QzsvgHPlAAAYlUlEQVT4WAoH9t/3/y2vrWfPHXWEl6/jgFKWMwH9Cvh+JD/vzdcE7Qpcj722tnH7sQaUmE5Txhve+LMpOPsb8bcdcYo5qO63ptPEbxmO6mG8nKvNZxVeGy9FrpaQhkXyhbc8ZVmGvr0Nv5kQZuVt4YJRQ+NuW3D2N+y8PGW8sQaU2Pu6P+fmyHPXVckXW0jLvAqJE/vF3+bEfoY+h0tAItVCGo49TMO7kEqOMAzqH3+bQf0Nxx/jVUAmcn0SkAPeSFIYfn+ei2QwIdwIaXXA8nH08x720vCiA4KSgFuBa5QcIgkhXRPJR0GTUbWSJzGdsCfVZVpAE5UUwkchTQT+GSARzYg8ayIOfYAPJCCRo0K6PiBCelvVs8SMypCArtetF1kspGXYc8Hc9D6repaAm1zcyA9IpofCjhJwsm65yKCQTgEW+SAgL80aqp4l4HEPN3Ii7hoEF0UygBBBEdJQl0KK14zgpqNH1bMEuLmRY9rt25GQJCCRDUJ62oGA4k3PcltDUPUsBp2wxzg4uYFvJbB5BVDbZtunIwksRLYIqaKdkGojf+tofqhbEal6FoM+OG/Ac3IDe2HPAxIiW4XUD+iN8wnqbkWk6lkMqpOolgkhvHXeZLx6FgrQDewEnOdw2x0kWrJICOGG8zJdPQuSiL6M84DlW7DHSwghkmcYdjNG3ouoE3ZUw74Ot98ONCv/CHEAezzs82/Yi03mvYh6AW6W7fin8psQMdmajdWzoIhoIDA4DTdbiFznjWysngVBRG4aqZO92ULkOis97pfR6lkQRNQL91EPVyq/CRGTJuDDbKyeZRo3Y4eiE101AEuI+DWMtWRZaJBQAG6a22rZx6jrXoh4NOO9Rzlj1bNMi8jN2CE/brQQ+UAyy8RmpHqWSRG5HTvkx00WQiQmI71nmRSR27FDQojUk5HqWSZF5HbskBAiPaS9epYpEXlppBZCpIdzsdtvc15EXhqpo+xRPhEipc9IX+z227SVijIhIq+N1FE0vUOI1D8jE0hjo3UmRJRsI7WmdwiR+mdkMGlstM6EiJJtpNb0DiHS84zk7JSPTtixpr2u4aTpHUJ0jF+rJadtyke6S0ReJri2RdM7hOiYzZFnJVnSNqYo3SIaGPlxXtH0DiHS+5ykpXqWThH5MXZI0zuESO+zkpYpH+kUUTJjh4QQ/uNkvFFaqmfpElGyY4eEEP7jNPZ7yqtn6RKRJrgKETw+C0r1LF0i8muCq6Z3COEfX2B30We8epYOEfk5wVXTO4Tw9/lfGoTqWTpElOzYobZoeocQ/tUeDgdeDEL1LB0iSnbsUFs0vUMI/2oPvbHHG2W8epZqEflZLfsQe6kUIYR/tYcTglA9S7WI/Bw7pOkdQvhfe/gqsCjT1bNUisjN2CEn9VlN7xDCOU4XWjwUeCHT1bNUisjN2CEnA6s0vUMI5zid+FoU2Taj1bNUisjN2KFtyjdC+IrTGkQosl1Gq2epEpGbRurnVeUSIiW4qUVktHqWKhG5aaR+FDjMwXYaVS1EaqtyGauepUJEbhqp10eqZb0dbKtR1UKktiqXsepZKkTkppH6KaC/w201qloI/7GCUD1LhYjcNFIvwh7H4ASNqhbCf7q0qWZlrHrmt4jcNFKvjhj4UAfbalS1EO5xOt+sV6arZ36LyM0E1/sjBi5ysK1GVQvhHqfzzcozXT3zW0ROJ7iuB56OGNjJNWhUtRDucdquelqbf2ekeuaniNxUy54C/uHi2BpVLYR7nLar9m/30k979cxPEbkZO7RIJRwhUo6b+WZksnrml4jcjB16O/JDo1jKL0KkBDfzzchk9cwvCfTBHiE9WGkvRE4QdlhQeQc4E9gUhBKRX8HxhRDBwKkbfKme+SEiP6MwCiGyj6SrZ36IqBcwWmkhRN5yFkn2nvkhov/A2aRVIURu0g/4ejIHSLaxemIoFJoWDocdns0iZKmTTIigEzYGjKvhewuACzIhou8DDyQsboVCHH/88QwaOIgBxw7g8J6HU1hYqFQWeYUxJqsG5FqWZbW0tPDJlk94/W+v88KaF/jb3/7G3r17O9q1BpiVThGdgj06ulu8DUaMGMHF37mY0047DUulICHIMh/tx8qVK3no4Yd48sknE222A3tQ83PpEFEn7Jnz5bG+7NmzJ7/4+S8YM2aMcp4QARCWnwWB+nn13HjjjWzZsiXeJk3AqcAuN8ct8HAtPwPGxvqiT58+3HvPvVRUVCg3CZGkOCzLSvrfftdG+vfvz9AhQ1m1ahXbt2+PtcmREQmtSGWJqHekNHR0rJLQ7Nmz+fd+/66cJESO89bbbzF27Nh4JaP3sQc4f+j0eG5LRJcC3431xc033cyQIUOUQkLkAT169OCo3kexcOHCWF8XA++x/5zShLgZR1QAnB/rixEjRjBq1CiljhB5ROSZnxPn6/PdFHTciOg4YswnKyoqYuzYsUoVIfKQ2bNnX1RUFDPI6uCIM3wX0TDs+Lb70f9r/RlyiqpkQuQbxhiGnDKE/l+LuRDP4TgPG42b0YVnxtTe4MGeWub37NlDQ0MD7773LgcffDADvzGQ445zJtBdu3axdOlSNv59I926deOkE09yvO/OnTtpbGzct++ggYMYMGCAcpUQLok+94MHD+aVV1+JV3j5o98iKov1x2OPPdb1D3j99df51eRfsWbNmn1/Ky4u5tJLL+X6665PuO+rr77KL37xi/1+eHFxMTU1NUyaOCnhvk3rmrjhhht49dVX99v3iiuu4NprrlXOEsIDCRxwvNNjuOk1u5H2kdwsi7HfG0tJSYnjg3z66aeMv2w8r7322gElpOeff57u3btTXl4ed98Jl0/gzTffPGDf1atX07NnT0444YSY+37wwQdcNuEy3nnnnQP2XbVqFb179+a4rx+nXCWES7Zs2ULdvPpYX3UBfuvkGG7aiLocsLNluZ479sBfHuC9996L//0DD7Bt+7aY383686yE+953333s3Lkz5nczZ85k06b4QeRqa2vj7iuESFCtKiyMN5ndcYwiNyLyZYhmU1PidRLfe+89Nr0fWxjLly9PuO8HH3zAO+++c8Df9+zZQ9O6xOd999132bBhg3KVEP7h2BlJxyMyAVrpJxQKUVhQ6HlfIURmHJD2py9e+0+U/v37U1paGvO7M844I+G+X/7ylznmmGMO+Hvnzp0pL+v4vLH2FUKkoRCR7hNe8v1LEjZuX3nllRxyyCEHWtcYxl06LuG+1026jq5du8b8bvz48fTp0yfuvlddeVXcfYUQOSaiHj16cNedd1FWtv9ogJ49ezJ16lSqq6pjVzYti8MOO4zbb7v9gH179erF1KlTE04zOeqoo7jttts4/rjjD9j3pptu4rzzFP9fiEzhpgH6gIpgKBTigQceYOiQoa5PvGvXLpYvX85bb73FYT0OY8iQIXz1mK962nfo0KEc09dZtWrnzp2sXLmSN958g969ezN48GBKS0qVE4TwyKpnV3HJJZcQJ2S0I8dkTERCCIkoY1UzIYSQiIQQEpEQQkhEQgiJSAghJCIhRO6JSKORhchv/HBAUus/h43hL3/5C8uXLae5uVkpIkSe0alTJ/7+/t8JJ7koZFIDGoUQwg/HqI1ICJFxJCIhhEQkhBASkRAi4yTVaxYKhbj6qqs55qvHsHfvXt1NIfKMoqIi3nv3Pe6acVe82feOSDoMyPOrn+cbA7+hFBEiT3lxzYucPPjkzIYB2f7P7UoJIfIYPxygNiIhRMaRiIQQEpEQQkhEQgiJSAghJCIhhEQkhBASkRBCIhJCCIlICCERCSGERCSEkIiEEEIiEkJIREIIIREJISQiIYSQiIQQEpEQQkhEQgiJSAghJCIhhEQkhBASkRBCIhJCCIlICCERCSGERCSEkIiEEEIiEkJIREIIIREJISQiIYSQiIQQEpEQQkhEQgiJSAghJCIhhEQkhBASkRBCIhJCCIlICCERCSGERCSEkIiEEEIiEkJIREIIIREJISQiIYSQiIQQEpEQQkhEQgiJSAghJCIhhEQkhBASkRBCIhJCiMJMnryxsZHGxkbX+5WWllJeXk55eblSUAiJKHkRTZ061fP+xcXF1NTUMGnSJEpLS5WaQqhqln62b9/O9OnT6du3L1OmTFFqCiERZZapU6dSXl7Otm3blKpCSESZY926dVRWVipV84DKykosyzrgo5KxRBQYGU2aNEkpK0QWURjUC6uoqIj73bJlyxLuO336dDVgCyERJU9H3fq1tbVMmjSJ7du3x/x+ypQp1NbWKoWFUNUsddTU1CSUlZfxSUIIicg15eXlTJw4MeZ3GzduZMOGDUphIVQ1Sz3V1dVMnz495ncbNmzIinaixsZGmpqa9g09SMfI8XSdc8OGDTQ1NdHU1LTvb6WlpZSWlga6hzOd1x09T9sXZ3l5+b40SRVNTU00NjbuywOVlZUZS5OsF5FTamtrY7YZlZeXM23aNN/3j7d9TU0NNTU1gN2ONW3atLjtXCUlJdTU1Djuks7EORNdy7Rp01i3bl3cbYqLi6murmbKlCkdvjAmTZq0nxTa/rv9eWNVy6dNm+boofb7uuOxbds2pk2bRm1tLRs3boy7XTQ9Jk2aRPfu3T3ngba/v76+nkmTJh1w3qlTp1JSUhL4moRp/wmFQmbJkiXGK5MnTzaxjgs4PsbMmTPjHqOhoaHDc1VUVCR1rfH2j7f95MmTzdatW01ZWVnc627/KSkpMWvXrvV8jak8Z3saGhpMSUmJ4/NEPxMnTkx43IqKCtfHjJcX0nndsbjllltMcXGxq/MUFxebmTNnes4D0d8/bty4hOcpKytz/XuWLFliQqFQvGPmfhtR9A2QqA0piFRWViZ848Zq7zrxxBOT6gVMxzlra2s588wzE77h4zF9+vSMjYxP53XX1NRw3XXXxS2RxmP79u2MHz9+X8nWCzU1NcyaNavDpo5MkNUimjZtWtwxRWVlZY6Ksulm6tSproTQlvHjx1NfXx/Ic9bW1jJ+/Pik7s26deuSetC8Sihd1+1EBB0xa9YsR00JsZ4VJ+eWiFw2tEbfLEG7oammpqYm7aWGjs7Z2NjY4cNcVlZGRUVFwoGqAPPmzfP0oHnNR+m67ilTpnQoguh5ysrKEm533XXXxW0jS3R9HVFSUpKxWkRgG6sty/K8b3FxcdZM8xg3bhyVlZX7Gj3r6+upra2NW3Tfvn07kyZNSqqa5vc5E5UGJk6cGHOUe6IBqVOmTKGmpma/Em37B6SpqSnmviUlJTEbkGOVjtNx3WD3wMULd1NcXBxzv2hjdrz9Jk2alNRYuZKSEqqrq/eds76+Pmvie6W1sTqZT6xGvaA0VrdtFFy/fn3Mfbdu3dpho2KsfTNxzkSdBR01rm7dujVuA3FH+8ZrvJ48eXLSnRx+X3e8+1pcXNxhh8DatWt9zQPFxcWmrq7O+Ikaq+O87dPdzuDlbdTY2Bi367d79+7U1tYybty4hHX+IJwzXjf/5MmTO0yH6Dnjtd2kknRd94YNG+JWyZyUQsrLy5k8ebJv96i+vj6QzRY5JaKJEydmxfyy2tpaRw3p06ZNo6SkJG77RqbP2dTUFLenyWnVuLKyMmabSEcTm5Mhndcdr6G/rKzM8eDBeNfkNg9Eq+RBJCdEVFJSQkNDQ9oaOZPBTQbs3r173EzophcsVedM9CAceuihMeMFxfrE+y1uG2TdNFKn67rjnWvdunWOz3PooYf6cn+C3G6atSIqLi6mqqqKuro6NmzYkDUB0dxeZ6Ltnb4RU3XOVPfeper46bzuVJ7LzVik4uLiQDdGB7bXrKGhIe530Tk/2YjbsU1+ZJ5UnTNVJZZUk87rDso9CnqPWGBFpJCvwSdb44On87rdjqDOVwp1C4JNJiYgOj1nZWVlzEbliooKX14kqSr1pvO6KyoqYp5r3LhxiiAqEbnHr0Brbo+TaHunxe1MnDNbg9in67pLS0sV6L8Neb/ktJM6/LZt23zrTl62bJmrUk684QglJSWO235Sdc54pYdly5a5qv6ku4qXzuuOdy63cwZzfZmsvBFRvId2+/btHcrI7zeX0wGXiSb1uq1CpOKclZWVFBcXJ33PqqurKS0t9WUMmJMXSzqvO97gwXXr1jmW0bZt2/YFZFMI5IDGI3ITJyfeuaqqqjxNBSCJKR7jxo0zW7du9XzeWPF1MnHORNNCnMTPab9/SUmJo/3iTfEoLi5O+Bszcd3xpoM4meIRK45URUVF3PhKyU5lytQUj7wR0datWzsUSts5OGvXru1w7lUyImqbedvOGaqrq+swCFiQzrl+/fqE+1VVVcWcE7V27dqE5+zowUn0W8vKyszMmTNNQ0ODmTlzZsz5Z+m87o4EHw1c1566urqEwdpi/S6JKOAiMsaYqqoq3yfYJiMFr594b9FMnNONACsqKkxFRYWj6IQdRVSsq6tzFd0w09ftJMJkWVnZvnM5+U2x5CURZYGIElXPskVEiWaXZ+KcqZD8Lbfc4ig93YRbjTfjPF3XnWjGfjpeRkEXUV71mlVWVlJVVeVp37Vr1/pyDePGjYvbUOpkXy8N5+k4Z21tbYfBw5wwefJkx3Oi3MwtjNcwnK7r7t69O/X19XEnFDuluLiYurq6rIkdJBEleGA6ioDXPuFnzpzpW8KXlpbS2NjoWgy33HKL516ldJyze/fuNDY2xg1Z4fQBcyPampqahGFL2hKvtymd111eXk5TU5Pnl2FZWRmNjY05G300b6pmbYvJEydOdFTtalsE9qNqFt1+/fr1jtoCKioq4gYzC8I54zVgO2noj7Z1dNSb58eqGMXFxR3+pnRed0NDg+OVSUpKShwHfMvWqpnlUkT7F6dCIRYvXsxZZ52VlWbdsGED9fX1ByxuV1lZSXV1dVKloClTpsQM81lRUbHf27mpqWnfNbRf7DA6TiXI5+xo/Et9fT0bNmzY7/zdu3fft5hjZWWlL4scRM/V2Nh4QFqWlpbuFxY1SNcdzYPRBR3blmKjY4eCPu9y6dKlnHPOOYTD4WQdk5kSUS6TiTdTJs4phBqrhRBqrBZCCIlICCERCSGERCSEkIiEEEIiEkJIREII4QeKWZ0i4o2GTWXA9EycUwiJKOAiSvfQ/GyYDiCEqmZCCIlICCEkIiGERCSEEBKREEIiEkIIiUgIIREJIYREJISQiIQQQiISQkhEQggRC016FflK+6VuLN0SiUiITAmo/d8lJIlIiLQLSEKSiIQIjIAkJIlIiMAIKBeFFPj2MIlISEDuj2tl+X0I3G+RiIQElDtSMtn6WyQiIQH5f34rS397xn6LRCQkoPRfm5VFv7XDcxtjkpaVRCQkIP2GjCMRCT28QiISQvIREpGQgIREJIQEJCQiIQEJiUhIPkJIREICEhKRkHyEkIiEBCQkIiH5CCERCclHSERCAhJCIhISkJCIhOQjhBZYFEJIREIIIREJISQiIYSQiIQQEpHIGrTiqZCIhBASkRBCSERCCIlICCEkIiGERBQXy1JnihD5jGVZSc9DlIiEEKnCsaDciKgl1h+bm5t1u4XIY/bs3mOFTUznOJaDGxF92P4P4XCYjz/6WCkhRB6zZcsWiC2izakQ0Sux/vjyKy8rJYTIY9auXevKGcmKqDHmHxsbCYfDSg0h8pBwOGytWLki3tdLUiGip4BPDlDeK6/Q2NioFBEiD2loaOCVV2IWfD5JlYheBV5o/8c9e/Zw9913K0WEyEPuuusu9uzZE+ur1RFn+C6iVuCJWF888sgjzJkzR6kiRB7x4P89aM2dOzfe1wsjznCE20FAvYEXI//dj169etGwtIFjv36sUih3UQB9YVePXnnVGnb2MDZvjtkx9j4wmBg97X6UiIgc+PZYX2zevJkLRl/Ai2teVCoJkcO8uOZFq6q6Kp6EAGa4kRBAgZfrAEYCR7b/YuvWrdTPq+fII46krKxMKSZEjlFbW2uNHz+eTZs2xdukCbicOAOg/RTRXmAd8B2gc/svP//8c+rq63j99dcpLi6mb9++mgYiRBYTDoetxYsXWz/72c+s3/3ud3z++efxNt0BXAxscHuOZAwxDqhNtEFRURFlZWWcftrpnHjiiRxx5BEUFRUpZbMUY4zaiPKElpYW6+OPPmbt2rWsWLmCdevWsXfv3o52qwFmeTlfskWVicAtLo5jUIOnENmA5eK5DgPXA9OTOVmyjAPuAg5S2gmRd+wArgH+ksxBCny4kHXASuB44CilixB5w/PAJcQZX5huEQFsjBhxF3AMcKjSSIic5R3gD8DVwHt+1QP9pg8wGjgXGAocrnQTIuv5BFiFPed0PrDJz4Onsl+9EzAAGBb5HA/0IkaXvxAicOzBjif0Cvbk1SXA67gIdiaEEEIIIYQQQgghhBBCCCGEEEIIIYQQQgghhBDCDf8f+SuXS9D5BoQAAAAASUVORK5CYII=;" vertex="1" parent="1">
                    <mxGeometry x="30" y="200" width="54.98" height="80" as="geometry"/>
                </mxCell>
                <mxCell id="53" value="" style="shape=image;verticalLabelPosition=bottom;labelBackgroundColor=#ffffff;verticalAlign=top;aspect=fixed;imageAspect=0;image=data:image/png,iVBORw0KGgoAAAANSUhEUgAAASIAAAGmCAYAAADYn4l4AAAACXBIWXMAAAsTAAALEwEAmpwYAAAAB3RJTUUH4QgSBgMM/brVCAAAIABJREFUeNrtnXt8FOW9/9+zSQBRGhREsdgEezgFqyZaEMFLoqgoIAm1trZUCaL11ha059eetscCbT3Vc9oKXvFWQi3HC2ICohQREi6iKErwUu8ClXpBFCiIEJJ9fn/MLg1hdzMzO7s7u/t5v177ErNz23meec9z/T4ghBBCCCGEEEIIIYQQQgghhBBCCCGEEEIIIYQQIvfoDdwErI18bor8TQjlZZGWRJsG7AZMu8+uyHdKRJFNeXlXnLz8B6CXblP2CKj9Z7eEJHIkL0tIWZhosYR0O9BHt1EEgD6R/OglL0tIWSggCUnkioAkpBwQUCwhzZCQRBoFNCNFeVlCykIBxRPSV3TbRQr4SgoFJCEFUkAHdbI/3hJxbyTDlCoZhA+URvLTXk/5sUtSeVlCyoiAig8x/HCMYfWdYVbeFmb8+XZCehfSfUBfJYvwQN9I/vEuoPHnG1beFmbVHWHr6ipDt645KSQrYAL6GXAV0Nn13kccijVhhDHfqoCuXfb/bst2uHeBxcMNsLvZy7W1ALOAG4H1er6EAwH9EhgHFLreu0sn+M6ZcMUoQ8/if/3dGPhiD9ZDDZb500LYss3LtX0B3AXcDGyWiPwSUMkRcPkoQ/WpUNRBmm/eCvc/afHQUtiz16uQZkeE9LaeN9GOfhEBjfUkoM5FcPFZMGGEodehibfd2wL1z8B9Cyw2fpz1QsqkiJISkDWgBOvK0YTPHWgIufwZm7fC3QssHmmwE9Q9YeABCUm0E9AlQMj13kWF8O0z4cpRHQuoPa1hQotftMzd8zGvb8xaIWVCRMmVgAYPgB+MNpz69eSvxB8hPQj8FnhDz2Pe0R/4L+C7aRdQe4yBFa/CvY9bvOApK2ZUSOkUkXcBWRYFw04ifMUoTNlXje9X9tFncO8TEpJIr4CuGGk48jB/r8wYWPsOBfc9YbUufSlrhJQOEXkXUGEBjBoCl480/NuXU3+lH30GM+ZbzF2ejJDmAFMkpJwV0BTgIs8CuvAMuGq0/wKKJaS3N9kv2Ceeg3A40EJKpYi8C6hLJ7iwAmvC+Zijepp05zbrgy2WmTEfHlsBLa3JCOm3wKt6frOe4yIlIG8CKiyAb56OddXo9OdnY2DTJ1C7yOLRRi+dNF8A90SE9GG2iagT8AJwgqu9unXF+v45mEvONRzWLfPZ7/3Ndre/dyEZ4FHg1xJS1groV8C3PD0rEQFxxSjD0RkevmMMfLYDa9Yiyzy4BHbscpuP1wEDgdZUXF6qRHQ99uApZ/TsjnXZ+ZiLzzQHjAEKAu9vtqts855JRkh1wGQJKWsENBUY41lAVafaVbCjAzqg+ZL/tljzpi0o53n4OmB6Ki4nlKKfeayrrVtbMc17Da3hYCba0b3gxssNC282XHiGndHcC/+bwMvAXKBMz3ogKYukz8uR9HInocICuw1o4c2GGy8ProSMgT//3NBwi6FfHzd5eEC2Vc3uAya43qtbVxg3HC45x1B8SHCz6/ub4Y56i/mrvDQCRt8u8yMlpHV6/jNOQURAoz09E6EQjB4K11YHVz5RAYWN3RHz2Ar405MWmz5xc4T7gctzX0RRDu6CNfYcTM15wWgripf/NnxkhWfMJwkhAczDbtReIx9kREDfxW6I/ppXAYWuGk249EgT2F8ZFdCeZqxHl2Fm/tXiw0+9HCnPRBTloE5w8TB7yHvbOTdBFNId9XjsJo2yINIuISFlg4BGnkLo2ursENCu3fDQUpj1lOVxflqeiyhK5yL4VmVqBoClQkgLnnXTCNieJyNVNgkpaAKyLBg1JHsEtHMXPLgUZi2y2LrDjyPnuYiiFBXCmNOC0R2aiHf+AXfOs1i4Olkh/QZ4Tv4IgIDOHwzXVKVnYG0yAjLAtp1YDzxlmb8sdttNn0ciOqoHbN0BXzR7P3pkxHXg6+b+COmpSAlJQpKAEgvos39i/fkpy8xeDJ/vdn+c4kMoqj6NvbP+mgciuvgs+NE3Dfc/afHg08kJKZpRrrrA8O9HBzejvPU+1p3zLLPohWSFNBVYJb+kXkDW8EGYa6qCm6+i8gmH7XhbMxfacyW9PE8RARWdOwg6FbHrol/liYim1NhP46f/xC8hhc4ZSPiqCwzHlgZaSKHb663w4jXJCGlJpMq2TL7xX0ChcwYS/mF1MAXUVj7GEPrHFitc+1eoW+EtvlY7AUXJPxFF8UtIAJXlWFdXpWaWvoSUmwICQucOCraAwsYWUGsY/v6x3QA9f5W3ydlxBIQx7LlnPq1Pv5h2ERWk6NaNBk6K+c1xfaGyfP+/de0Mpx4HF1Xacnxjo9epFLDhI3h0Gax92+LoXtC7R/AyVo9izPmD4awTKfj0n5Z5z9NcwmOAGuAs7PC1G/NUQGOBh4ErgJ6eSkHnDiJ8648MPYqDJyADtLbaz8O7/6DgD3Msc+NfLF7b4H6oSPEhFF18Fl1+fCEFA0qh4MDHv/XFN0mQH9diD8T1ncJgPaBfgp9ebJgwIvkS0jOvwjOvWgzqD9eOMZwyIHiP0bGltN4+0fC3DRTcXu81fswZQCOwHHty7RKVgBwe5Oxv0HpNlQkHsTrfZhS09eb7FjMXYp5aQ6uXcWrxSkABIhhVs3j4WWULspCi/G0D3PqYRWNTMkfJZSH5I6CzTqL1h9XBbE9sWwp6exOhGY97r8IXH0KnMadTeM5AW0AW9rETsPvexwk/9UIetBFVnwY3/cDdXf1sB9z3hITkjmeBG3JESL4IiMpy+PE3g9uhEZXQGxv9E1DnIky7x9yKdUwLjGXxxW1zSZDvcmxA46D+8MNvGgb3R0JKkDjr3rXMXfPwQUhTgUUSUGlwf2kkomJSwzzaCQiwJdT2KTexZdTy2nqa5y6DV95LdIYcHVktITkX0q1z7XYv76zGHhi5KJ8EFPgeVJ8FZDp3OvDpjq5yEzYHVM1aX32PvQ8vdboCyN3YEVezRkS/iWQi5zLwKqQ/PWkxe3F+VNleehvuqLOSFNLzkfRZkLMCOvU4rB9fGGwBAbz1Psx43PvIe6cCiiEhlwKK8ttIdT9rRNQde0rC11zLQELKRyH5JiCuHWM4qV+wy3vJTv1xI6CohCLVMo8CAngTOAXYlk0iAjva3a3Y3ctISCkS0vRHLVa/nsxRXsRemWKBBJSlAnIgodZXPAsI7J7YH5PCIH7pWE6oArs7WUJKFavfgDvrkhVSE3aj9jw67OQNiIAGD4CJ38orAbUdB2QsK3F7kD8C+lXkvynNE+lcYDE5IXmRQT4K6fbHvK70GeXlSAmpPgWZzz8BXTPG/QsqmwXUuShs7GWq2j/ChQc8zW2rYG/83cu5owJK2/ShTCw57V1IJ/azS0hul5vONyE997rdhpS8kH6DHcvZBEJAXkvI2SygohiTH0JWOyn9S0bZJqBMisgfIV1dbTjjeAmpIyFNf9Ri7duZEpJ/Agr6vU6VgKwYj6gxmJC1b7arZSj8Yu2bxsxZZvHOP7JKQEEQUfJCOv4Y+NGFElJHPPOaXWVLTkivRapsToTkj4BO7Ge3AeWTgKJtQMbsL6G2x7XbgcIGwrtferPAzFlm8famZNqAMh7BwQpQciYlJOuaasyZ5UZCSpTtXoG76v0Q0k3A7BhC8k9AXqrguSCgtuKJiqj9sS2LbC8BBVlESQvJGlCCuXaMYdiJsYu0EtK/hHTbXKuD4fwd8Sb2ALfZ2At1SkB+CKi9eCzrX1IyhpbnXzfNc5dZbPgoJwQUZBFFKQN+DnzHi5CsK0cTPu/kMBjLlZDyaXKtf0IiKQF5rWLnmoD2fzLDhE3IhOzFmFufe80W0HpPsaseBn6H3d4XyNHmFsGnN3CLFyHRrw+ha8cQHj7QuC4h5dNctoYmy9xZT5JCkoD8EFCkRBRtjG597m8FzXMaLDZ+7FVA1wEfBVVA2SQiX4TEVVWG808+cOSphLSfkLh1rtfBb64E5KlNL8cFtG+AogWtz75mkhAQwCXEbseTiHwU0jrgcNd79u1td/uPHAwFIQkpHk+/hHVHneW3kKwBJfDjCyWgGE+hiUQta13xsh2Ow92a9LG4GfjPbHmos1FEYIe0ONnz3iVH2CNzR50iISWoHrBkrT0OyVvX8H4CMteOMZx9kqpgsUpAUQHNaYAPPvXr18wDqiWi1NEJeAE4IekjlRyBdeVoTNWpRkKKL6TQojVW+I463ArJcy9mnpSALGNoWb6O5kcb4cNP/f5Vy7F7oCWiFNEHO4RFb/+OeDhcOdrwzdNVQvJDSP362AMR80BAroLStxXQsia7BPTxVi9Xvgfo3ME2zwJDJaLUMQp4PCVHPqqH3YY05jR7WWun5FOQ/0RC8tpLmQ8CsiyssOGLpS9iHlvuVUDrsSMkXOOgaWI1dvwgiShF3AT8zMF2NdjjkL7mSUiXjzJcVBF70qGEZE8wWLoWVr5s56HTTlAJKE47kBUO80XDS5g5y2CLp7hib2KPA5oV+f/ngMESUWapB6pc/LaBwF88CemIQ+0qm4SU3WRAQLasw3yx5EXMYyuSEdD3sYPXtb1wiSgALKPj6R8fRoqubesOpwC1XoVkTRhhzLfPhC6dJCQJKDHNe2lZvIbmx5+x84A3AdVEZBLrwiWiALAKGNLBNk2RhIr19J8C/BlwH9avZ3esH4yUkCSgxAKatxK27vBy5W8DlyYQkEQUIJwkwvMOthkaqea5HxjZszvWZedjvjfMSEg5JCDLguP60vU/x7oT0J5m9i5ew976lbB9p5cr/wR7zM+zOBsJ7dczIBGlWERO3wZ9sGeQX4I9g9wdPb6ENWEk5uIzDV27SEhZXAIqrCij9fzBHNSzuzsB/XU1ex9/1quAwsAD2FELNvn8DLwMDIpTK5CIfMDJqGq3xdJ+2IsPfteTkA7tBpedbxh7NhJSHlTBogKa9wzs2OVVQA9id8V7CQ7ltZ1UIvIJp6OqvdaP+2NHIbzIk5CKD4Hx59lC6tY1c0K64RLDvx8tAfksoPCu3exe+Bw88VwyApoTyWPJBBR32nN8AcFcSDPrReR0VHWyw9uPi7ytxni6R926wrjhMG64yYiQDu0Gf73ZUHxIzjnImj7XMjPmZ0ZAj6+Cz3d7uWwD1EVK3a/6cBucjqXLmomvBVmWD88AfuBguybgoSTOsxl4JPLm6R0pKTmneS88/wY8tNSiea/FgBLo7CDjd+1sLxZ4UaX9knhjI7S0ur/63c1wVE873k8u8dLb8PN7LE8Cuvgsuvz4QgoGlEJBgWMBfVG/nJZpc2Dt27C3xctVzwMuxl5sdLNPd6IL8D0nr7Ykn4O0UZhlWfE0h9u94dP51mH3ZgyMlJBGuNp7xy64vQ5mLrSsS4djaoY7K6X0+BL89GLDhBHeS0gbP7LIklg0jktDK162jFsBeSkB7dxFy4JnaXny2WRKpk9GSkBrUnArmiJtQB3VDA7NlrQNZVledFoyWenzedcAI7F7Kp5yvffnuzF3zYOzrresP86xHPewRIW0+A+Gfn3Id8yn213mbouWzkWO5w2Gd+6iefZidl/zR1rmLvMqoaci+WRkiiQULbE7iZhWlC1pm20lIieG/zDyxkgFzwPDsccg/RoY5lpI9zwOsxdbfHcYXDbCcFi3xPs88xrW7x+yjNuYQCVH5lRpCIBDurrbfusOzD2Ps+vJ57C+dzYHDYrdo7j7H58QWvoSLU+9YFdrvbEEOzD9qjTciWacdctnTUEj2xqrkx1V7Tfel0ACOKgTfPdsmDDC0ONL+3/31vtw84MWz3ho2+zZHZ7475xrrLYamixz9R+97z+gBC45l4P6Hb1PQOE5DbDqNW+N3zaZWhkjp0ZXZ5uIgjqidBj2aqhDPO19UCf49plwxShjNe+1zK2PwbxnvD0cgwfADZca/u3LOVg3M4Qm3m6Fn3ohueMMHmBX15IT0LPADZGSUFCfBYkoT2/+cOxGbW8i7NLJfjD27HW/7/HHwE++k/sDGo2BJ5+HWx9NJrB8MqzGboRepGfBPwoRfrIo8hmFPWjtG6729tI+0a8P1vXfDn5Aet9enRaMHAznDTI8tgLurLdSEGY1Fi9G0nRBNt0tXWjq3kbZFJmuOlJCOsH3I5ccAT/+lmHEycEORpZq9rZgPbgEc88TlseYPx3xcqQEVJ+FtYOsmW+WTTk41dM7UnmPL4y8TZNfSzkaztZtfO1cZ9dumP003LPA8jj9oj2vRdJsLsEcj5VT882ySUTpmt6Ryut/wnPpqGd3uKbKfbTIfGPHLqw/LbTMnxd5nY4RLUmMDPgDnFPzzbLplVqOs5U7tgbsuvsAtwPveJJQ8SHwk28bnv694XvDJKGO6NYVM/FCexDouOFe79cJkfS6PZJ+QcTp7IHTsiHZsklE6Z7ekSylwIxIhr6Wjpd/2Z+Du8APx8DTvzdcMcpdREgBh3WDn481LP694duV7lZlsekcSbd3Iun4lYD9QqezB/pnQ3JlU9UsW4qifYFfAuPw0it5UCcYew5cMTL4AxJXvwELn7P4ck/7YQ/y9b6/GW59zGLBs17HDrVgr6JxI/ayPmqqyFMRBb1xrl9EQGOTEpCTaR+ZJlY8IMuCUUMIXVtNuDTA00uSjWVkC2l2REhvZ/CXdMLumCnvYLusWGgxm0QUtOkdbYu+/4XX6I7ZJqC7H09cqgiFYOQp+SKkh7FDDWeqOSDbhrPkhIiCNr3jOOw5RhfmuoBCGz6ywnfU46paEwrB6KGErhqdHUJqeMnrbPto1MXf4k/QM7+fCYkoR296WURA3qI3ZqOAnngOwmGPB7GFxLXVhqN7BffHJh8dM4zdjvlr7DhWEpFElBIGYo+wHeVp72wT0Iz5MH+VdwG1p7AAqk6Fq0YHV0jGwGc7khWSAeZHSkhrcvyZyEsRZao+fAr2LOsRnvbOpjag9zfDjPkW857xFqJWQmovpIXYU3yel4hyQ0SZmN7hLfiZBORcSN88Heuq0ZijegazDck/IS2OCMnvoGk5s9BitogonWMmkg92JgFJSLGFtBQ7bpVfQdRyZuJrtohoFPC4g+3mYc9498Iw7EbonBeQ9cEWe0mex1ZkTkDtKSqEC8+wq2xHHpbrVbYVkZddskHVcmbia7aIKJXrOA3HboT2Hl0xW0pAH31ml4AeXeZdQJ2LoNvBxA25cVQP2LrD++oX+SWk5yJVNq9B1nJm4mu2rGv2Q5zNmbkZeMtFKeuBiOCO9iSgmvNg2o8Mw06CgzoHW0C/f9ji5/davPwuhI0nARWOHELnn3wHs3krZv2HsbcbOQTumGTwui5bOAyvrofZT1t8+k+LAV+Bgw8K2OvbstegG/p1uOhMPP5WK5LvxgLnAx+5yLtRynE2B/N94GmViJLHryKoFam6/YqOh8Znfwlo81a4e4HFIw1eFwe0BTT8ZIqqTsP60sEA7LmrntalL8Xe/uKzYEqNbTo/Vq4tKrTjeV85ytAroMt0+VdCegm7299pELZ0NFlIRG1IdnpHNDjZDXiNByQB7cOxiKL4IaTORfaxJ4zIByGtw57L1lFQtpyZ+JotIkqmm/I47GV3v54XArr/SYuHlnoLwN+BgDyLKBVCumKUoWdxrgvpb9jLVcebOpIzE19zSURtxxCVAdcBA+h4EGT2C2jLdrh3QcoFlLSI/BRSl07wnTPzRUgvAK8A02JIKScmvuaSiF4EbgMmeW7/yVYBPdzgfYVSFwLaJ6K759H69IveReSnkBItUplbQmrbjjQNuxdsGzkyujpbROTE+mGSiTiZTQLyqYrjVkAYQ8uKl2l+cEni7vuJFxlGneI8uL9fQgp6+vkrpO2RNqRBZN+CElkpIqfTO3JfQJ/tgD89aTF7cXoFFA7TsvIVmh9txPEaYn17w1VVElJqheTmRS4RJYnTngEJKAgCCoqQDu6CNfYczITzgxtyN31Ckoh8wOlYidwT0PadWPcvtMzsxd6XxsmUgBIKqcBhG9J2i/uesHhoSXJCunQ4pmZ4Pgsp8BNfgy4i/xYnzDYB1S5Kbm2uoAjIDyFt2WbZwxIkJI8EfuJrUEVUAHwf+DnwNQkoBwQUNCFddr6hW9d8EVILMB54EGiViDqmE/YyPD/HXpYnGb7g8pEHZYWA/Fid1KuAVrxM89xlyQjoi6jys0pI3brCuOEwbni+CMkA7wL/g70sUrNEdCBdgMuwZ84fnbSA4FZW3fHTbBAQsxZZzFqE5/XaMyugu7AnGoM9efjqpIR09egwI4dYFIQSxKe1rJQI6Ydjghvg338hbcKOaHFfUISUaRF1Ba4C/oNke8WyqQqWOwLa3O67XlkrpEnfMlx6LnTtQlYI6U9PfuH5Hv9LSB9F0vFeYFc+iqg7cA32KOjD80ZAu3bDn5+yM1L2CWgP9tLLN2NHOkhE74iQrsLtUtuuhGRZvlXZLAu+dDCMPy+7hORPCWkL8L/AHZkSkpUhAf2/yL/zS0Az/2qxfWcuCyh1Qhp9ajh2vrUsX9uQokK6fIRh7Nn5KKRpwJ3Y00dyTkTdgZ9gBzjLLwHNfhrue9K7gLp0ovDcQZkS0H3Y4Sg+TPJO9MFu/7vcRyEllpEfQup+CFx2fj4KaTtwO/CHdAkp1SKKthlcAXTLOwH9aaHF1h3eBXTeYIouGJopAd2E/3GO/RZSxzLCWGzZTrJCsq4YhfneMEOXTvkkpJ2R0tEfObA9MGtEdDt2T9hBEpB7ARVWnUrokK7pFlAtdoTAVAda7wP8F1Djg5BMxzKSkJLkC+Ae7DbdrBLRfcCEvBHQ7mas/1timXsX4IuAunVNHJfPXwG1APcD/w38Pc137ivALyJ5pTD1QjL235MV0mHdsK68wJhvn0melZDuwW7vywoR9cEO1p0fAnqkAXPPE1bcsBgd0bmIwvNPobDqVKxuB2MZkw8Cak9ppIQ0zj8hdSAjP4TUoxjrByPzSUgm8vLYlA0iGogdtkMCCq6AZkWqYBsCdmf7Ar/0T0gOZBQV0tk/sTwFl8svIRnsuGBrclJE1oASzL3/EdyQn34LaPjJFI45PRNVsFnYvWDrg32jMyCkT/8J9z1h8eASPAupV3e4crThogp79ZEgs3krTPhfi7c3SUQHZpxqe85RKGBT4Pa2wJxlcPd8i4+3Ji+g9DZCtwCzsRfyC7qAYglpMnAJXqNvRoU0aqhFKGQSyihaYshlIYUNLHgO7qq3WO96VEYeiCiIQspuAYWxF5C8EXib7KZfpISUpJCi+aq9kNpV1fwS0pGH2cH9gyCk5ASUhyIKgpB8FFAGBiKGscM9TM0BAcUS0mTgu/4LyVhx21SSFVLvw+DyUYZvV0JhQTYKKI9FlAkhRQV07wLLswgyFw8olwXUnv7YvWw+C8nEzmB+CunqasOY01IvJH8FJBGlRUgtrVC30k60D7JWQL8F3iC/6I8dvfOipIU0emhiGaVCSN883Xkc78wKKAdFdMShsG2n94UA/RRS9gtoTuRBzDcBtee4SAnJu5D+5+o2pSOTOGP5JaQv97Qbtf0Qkh8C6lwE3Q4mQY9w7ogodO4gwrf+iMKf3k3LouczI6TWMDy2wm4D2vRJtgnIAI8Cvyb+UsT5LKRfAd9ynbctC0qPdJen/BLSV3phXTkaU3WqcS0knwRUOPxkikafRvNDT8dfPDMXRRTFFyE5Xa6mNYw17xnL3FlP0gIafRpWsQQUYCFNBcakTUj7lkBKk5Baw7aAZszzRUBW8cFgDHvumZ+fIkqLkKICuns+bPw4GwVUh91bJAG5oyxSQso6IXHNGMMFQw48byoE1Ob6815EKRES2Il2Z52VxQL6NbBOTklaSFOBKk9iyJSQSo+08/IFQ+xj+iCggnMG0an69Nh5WSJKkZDC4WwsAQHMi5SAJCAJyT4vkDIBSUSkXkgSkIidRydjryKcHUJKpYDasOfuefkhInp2p9N3h9F8rbuXUsqFlFkBLYi8qdfIEWkX0lRgRE4JyYOAMIaWZ16hefbTOdN9XwY0dbjVUT3odNGZNF89OrNCyqyAnoy8mSWgzHIysNrbExQgISUjoDkNOBhLZ4ATU1FiT4WIugOf4nRgmVch/ee9tCx8zruQMi+gqcDzckBgOCWSJudmnZCSEdDcZW6GsoSBHqQgoH6qJm894bq461VIv7yflgWrnAspGQHNbcTzCGybpyIloOf03AcSCxgSSaPMCOn/nnaVl1NcAor1Ah2ZqhufCvoCy/CyfHTnIgpHDaXlRpchr6fUQt2K+InYJiKiq3AcElA+C+nXwLC0CMkYe8rRR5/ZQuogL3sRUPPDS+2XdnOLfT53vA9UkKKYVqmczt4VuBZ7McXD0yGkgv+YQeuCVbF/6Hkn0+WKC7DCJp0CWoI9oG6Vnu2sFdIZwA0pF1JURLt2Y32+2+J/HsL8NXbNveDsb9D5yir3AvLWjPEJaVgFNpTCRNwV+QGlwE8jP8g5e/bSMncZlE2g8Jf3OyvAtLTEzw9h03Fc6HCYluXr2HXdbTTfNjcZCS0BTgXOloSyGhMp2Z8DVALL3R/B2ON/fjbDYuR/Wsx/1p4fFutMrWHY24rV3OLshdmRgB5awq5Lfms/R+4l9EnkuS2NPMcpXYo6lIbEbCukn6RSSKGW1o6zVRwB7b73cXaN/U2yAloeybASUG4KqdIXIZVNsJhSa9EaPiAfJn+lvgjoJ+kSUDqqZomqbFdhr/jpb5XtrOviS6TP4XSd9qP9ZRQOs/v+JwgvfckuFntneaQKtkzPbN5U2c6KpPkZno9SVAgXngH/dYkhFILmvbDzC0I7v7DCl/9v/N6so3rQdfrEAyTW/EhDslWwm4AZ6ZLPftXNDCTiXuDZSJ3zM+Ak4GDHe7eGCb++EWvJS3TCovW4vv/6MS+8iXkv9jD40Clfp2Bgf8DCMoaWFS+z+5ZHME3vxC4qOxfQOOyYQBv1fOYV67FXRVmBHcLWfcdMOAyvbYCFqy2+dDD821F2ySkctqy3/wHv/CP2QzsvgHPlAAAYlUlEQVT4WAoH9t/3/y2vrWfPHXWEl6/jgFKWMwH9Cvh+JD/vzdcE7Qpcj722tnH7sQaUmE5Txhve+LMpOPsb8bcdcYo5qO63ptPEbxmO6mG8nKvNZxVeGy9FrpaQhkXyhbc8ZVmGvr0Nv5kQZuVt4YJRQ+NuW3D2N+y8PGW8sQaU2Pu6P+fmyHPXVckXW0jLvAqJE/vF3+bEfoY+h0tAItVCGo49TMO7kEqOMAzqH3+bQf0Nxx/jVUAmcn0SkAPeSFIYfn+ei2QwIdwIaXXA8nH08x720vCiA4KSgFuBa5QcIgkhXRPJR0GTUbWSJzGdsCfVZVpAE5UUwkchTQT+GSARzYg8ayIOfYAPJCCRo0K6PiBCelvVs8SMypCArtetF1kspGXYc8Hc9D6repaAm1zcyA9IpofCjhJwsm65yKCQTgEW+SAgL80aqp4l4HEPN3Ii7hoEF0UygBBBEdJQl0KK14zgpqNH1bMEuLmRY9rt25GQJCCRDUJ62oGA4k3PcltDUPUsBp2wxzg4uYFvJbB5BVDbZtunIwksRLYIqaKdkGojf+tofqhbEal6FoM+OG/Ac3IDe2HPAxIiW4XUD+iN8wnqbkWk6lkMqpOolgkhvHXeZLx6FgrQDewEnOdw2x0kWrJICOGG8zJdPQuSiL6M84DlW7DHSwghkmcYdjNG3ouoE3ZUw74Ot98ONCv/CHEAezzs82/Yi03mvYh6AW6W7fin8psQMdmajdWzoIhoIDA4DTdbiFznjWysngVBRG4aqZO92ULkOis97pfR6lkQRNQL91EPVyq/CRGTJuDDbKyeZRo3Y4eiE101AEuI+DWMtWRZaJBQAG6a22rZx6jrXoh4NOO9Rzlj1bNMi8jN2CE/brQQ+UAyy8RmpHqWSRG5HTvkx00WQiQmI71nmRSR27FDQojUk5HqWSZF5HbskBAiPaS9epYpEXlppBZCpIdzsdtvc15EXhqpo+xRPhEipc9IX+z227SVijIhIq+N1FE0vUOI1D8jE0hjo3UmRJRsI7WmdwiR+mdkMGlstM6EiJJtpNb0DiHS84zk7JSPTtixpr2u4aTpHUJ0jF+rJadtyke6S0ReJri2RdM7hOiYzZFnJVnSNqYo3SIaGPlxXtH0DiHS+5ykpXqWThH5MXZI0zuESO+zkpYpH+kUUTJjh4QQ/uNkvFFaqmfpElGyY4eEEP7jNPZ7yqtn6RKRJrgKETw+C0r1LF0i8muCq6Z3COEfX2B30We8epYOEfk5wVXTO4Tw9/lfGoTqWTpElOzYobZoeocQ/tUeDgdeDEL1LB0iSnbsUFs0vUMI/2oPvbHHG2W8epZqEflZLfsQe6kUIYR/tYcTglA9S7WI/Bw7pOkdQvhfe/gqsCjT1bNUisjN2CEn9VlN7xDCOU4XWjwUeCHT1bNUisjN2CEnA6s0vUMI5zid+FoU2Taj1bNUisjN2KFtyjdC+IrTGkQosl1Gq2epEpGbRurnVeUSIiW4qUVktHqWKhG5aaR+FDjMwXYaVS1EaqtyGauepUJEbhqp10eqZb0dbKtR1UKktiqXsepZKkTkppH6KaC/w201qloI/7GCUD1LhYjcNFIvwh7H4ASNqhbCf7q0qWZlrHrmt4jcNFKvjhj4UAfbalS1EO5xOt+sV6arZ36LyM0E1/sjBi5ysK1GVQvhHqfzzcozXT3zW0ROJ7iuB56OGNjJNWhUtRDucdquelqbf2ekeuaniNxUy54C/uHi2BpVLYR7nLar9m/30k979cxPEbkZO7RIJRwhUo6b+WZksnrml4jcjB16O/JDo1jKL0KkBDfzzchk9cwvCfTBHiE9WGkvRE4QdlhQeQc4E9gUhBKRX8HxhRDBwKkbfKme+SEiP6MwCiGyj6SrZ36IqBcwWmkhRN5yFkn2nvkhov/A2aRVIURu0g/4ejIHSLaxemIoFJoWDocdns0iZKmTTIigEzYGjKvhewuACzIhou8DDyQsboVCHH/88QwaOIgBxw7g8J6HU1hYqFQWeYUxJqsG5FqWZbW0tPDJlk94/W+v88KaF/jb3/7G3r17O9q1BpiVThGdgj06ulu8DUaMGMHF37mY0047DUulICHIMh/tx8qVK3no4Yd48sknE222A3tQ83PpEFEn7Jnz5bG+7NmzJ7/4+S8YM2aMcp4QARCWnwWB+nn13HjjjWzZsiXeJk3AqcAuN8ct8HAtPwPGxvqiT58+3HvPvVRUVCg3CZGkOCzLSvrfftdG+vfvz9AhQ1m1ahXbt2+PtcmREQmtSGWJqHekNHR0rJLQ7Nmz+fd+/66cJESO89bbbzF27Nh4JaP3sQc4f+j0eG5LRJcC3431xc033cyQIUOUQkLkAT169OCo3kexcOHCWF8XA++x/5zShLgZR1QAnB/rixEjRjBq1CiljhB5ROSZnxPn6/PdFHTciOg4YswnKyoqYuzYsUoVIfKQ2bNnX1RUFDPI6uCIM3wX0TDs+Lb70f9r/RlyiqpkQuQbxhiGnDKE/l+LuRDP4TgPG42b0YVnxtTe4MGeWub37NlDQ0MD7773LgcffDADvzGQ445zJtBdu3axdOlSNv59I926deOkE09yvO/OnTtpbGzct++ggYMYMGCAcpUQLok+94MHD+aVV1+JV3j5o98iKov1x2OPPdb1D3j99df51eRfsWbNmn1/Ky4u5tJLL+X6665PuO+rr77KL37xi/1+eHFxMTU1NUyaOCnhvk3rmrjhhht49dVX99v3iiuu4NprrlXOEsIDCRxwvNNjuOk1u5H2kdwsi7HfG0tJSYnjg3z66aeMv2w8r7322gElpOeff57u3btTXl4ed98Jl0/gzTffPGDf1atX07NnT0444YSY+37wwQdcNuEy3nnnnQP2XbVqFb179+a4rx+nXCWES7Zs2ULdvPpYX3UBfuvkGG7aiLocsLNluZ479sBfHuC9996L//0DD7Bt+7aY383686yE+953333s3Lkz5nczZ85k06b4QeRqa2vj7iuESFCtKiyMN5ndcYwiNyLyZYhmU1PidRLfe+89Nr0fWxjLly9PuO8HH3zAO+++c8Df9+zZQ9O6xOd999132bBhg3KVEP7h2BlJxyMyAVrpJxQKUVhQ6HlfIURmHJD2py9e+0+U/v37U1paGvO7M844I+G+X/7ylznmmGMO+Hvnzp0pL+v4vLH2FUKkoRCR7hNe8v1LEjZuX3nllRxyyCEHWtcYxl06LuG+1026jq5du8b8bvz48fTp0yfuvlddeVXcfYUQOSaiHj16cNedd1FWtv9ogJ49ezJ16lSqq6pjVzYti8MOO4zbb7v9gH179erF1KlTE04zOeqoo7jttts4/rjjD9j3pptu4rzzFP9fiEzhpgH6gIpgKBTigQceYOiQoa5PvGvXLpYvX85bb73FYT0OY8iQIXz1mK962nfo0KEc09dZtWrnzp2sXLmSN958g969ezN48GBKS0qVE4TwyKpnV3HJJZcQJ2S0I8dkTERCCIkoY1UzIYSQiIQQEpEQQkhEQgiJSAghJCIhRO6JSKORhchv/HBAUus/h43hL3/5C8uXLae5uVkpIkSe0alTJ/7+/t8JJ7koZFIDGoUQwg/HqI1ICJFxJCIhhEQkhBASkRAi4yTVaxYKhbj6qqs55qvHsHfvXt1NIfKMoqIi3nv3Pe6acVe82feOSDoMyPOrn+cbA7+hFBEiT3lxzYucPPjkzIYB2f7P7UoJIfIYPxygNiIhRMaRiIQQEpEQQkhEQgiJSAghJCIhhEQkhBASkRBCIhJCCIlICCERCSGERCSEkIiEEEIiEkJIREIIIREJISQiIYSQiIQQEpEQQkhEQgiJSAghJCIhhEQkhBASkRBCIhJCCIlICCERCSGERCSEkIiEEEIiEkJIREIIIREJISQiIYSQiIQQEpEQQkhEQgiJSAghJCIhhEQkhBASkRBCIhJCCIlICCERCSGERCSEkIiEEEIiEkJIREIIIREJISQiIYSQiIQQEpEQQkhEQgiJSAghJCIhhEQkhBASkRBCIhJCiMJMnryxsZHGxkbX+5WWllJeXk55eblSUAiJKHkRTZ061fP+xcXF1NTUMGnSJEpLS5WaQqhqln62b9/O9OnT6du3L1OmTFFqCiERZZapU6dSXl7Otm3blKpCSESZY926dVRWVipV84DKykosyzrgo5KxRBQYGU2aNEkpK0QWURjUC6uoqIj73bJlyxLuO336dDVgCyERJU9H3fq1tbVMmjSJ7du3x/x+ypQp1NbWKoWFUNUsddTU1CSUlZfxSUIIicg15eXlTJw4MeZ3GzduZMOGDUphIVQ1Sz3V1dVMnz495ncbNmzIinaixsZGmpqa9g09SMfI8XSdc8OGDTQ1NdHU1LTvb6WlpZSWlga6hzOd1x09T9sXZ3l5+b40SRVNTU00NjbuywOVlZUZS5OsF5FTamtrY7YZlZeXM23aNN/3j7d9TU0NNTU1gN2ONW3atLjtXCUlJdTU1Djuks7EORNdy7Rp01i3bl3cbYqLi6murmbKlCkdvjAmTZq0nxTa/rv9eWNVy6dNm+boofb7uuOxbds2pk2bRm1tLRs3boy7XTQ9Jk2aRPfu3T3ngba/v76+nkmTJh1w3qlTp1JSUhL4moRp/wmFQmbJkiXGK5MnTzaxjgs4PsbMmTPjHqOhoaHDc1VUVCR1rfH2j7f95MmTzdatW01ZWVnc627/KSkpMWvXrvV8jak8Z3saGhpMSUmJ4/NEPxMnTkx43IqKCtfHjJcX0nndsbjllltMcXGxq/MUFxebmTNnes4D0d8/bty4hOcpKytz/XuWLFliQqFQvGPmfhtR9A2QqA0piFRWViZ848Zq7zrxxBOT6gVMxzlra2s588wzE77h4zF9+vSMjYxP53XX1NRw3XXXxS2RxmP79u2MHz9+X8nWCzU1NcyaNavDpo5MkNUimjZtWtwxRWVlZY6Ksulm6tSproTQlvHjx1NfXx/Ic9bW1jJ+/Pik7s26deuSetC8Sihd1+1EBB0xa9YsR00JsZ4VJ+eWiFw2tEbfLEG7oammpqYm7aWGjs7Z2NjY4cNcVlZGRUVFwoGqAPPmzfP0oHnNR+m67ilTpnQoguh5ysrKEm533XXXxW0jS3R9HVFSUpKxWkRgG6sty/K8b3FxcdZM8xg3bhyVlZX7Gj3r6+upra2NW3Tfvn07kyZNSqqa5vc5E5UGJk6cGHOUe6IBqVOmTKGmpma/Em37B6SpqSnmviUlJTEbkGOVjtNx3WD3wMULd1NcXBxzv2hjdrz9Jk2alNRYuZKSEqqrq/eds76+Pmvie6W1sTqZT6xGvaA0VrdtFFy/fn3Mfbdu3dpho2KsfTNxzkSdBR01rm7dujVuA3FH+8ZrvJ48eXLSnRx+X3e8+1pcXNxhh8DatWt9zQPFxcWmrq7O+Ikaq+O87dPdzuDlbdTY2Bi367d79+7U1tYybty4hHX+IJwzXjf/5MmTO0yH6Dnjtd2kknRd94YNG+JWyZyUQsrLy5k8ebJv96i+vj6QzRY5JaKJEydmxfyy2tpaRw3p06ZNo6SkJG77RqbP2dTUFLenyWnVuLKyMmabSEcTm5Mhndcdr6G/rKzM8eDBeNfkNg9Eq+RBJCdEVFJSQkNDQ9oaOZPBTQbs3r173EzophcsVedM9CAceuihMeMFxfrE+y1uG2TdNFKn67rjnWvdunWOz3PooYf6cn+C3G6atSIqLi6mqqqKuro6NmzYkDUB0dxeZ6Ltnb4RU3XOVPfeper46bzuVJ7LzVik4uLiQDdGB7bXrKGhIe530Tk/2YjbsU1+ZJ5UnTNVJZZUk87rDso9CnqPWGBFpJCvwSdb44On87rdjqDOVwp1C4JNJiYgOj1nZWVlzEbliooKX14kqSr1pvO6KyoqYp5r3LhxiiAqEbnHr0Brbo+TaHunxe1MnDNbg9in67pLS0sV6L8Neb/ktJM6/LZt23zrTl62bJmrUk684QglJSWO235Sdc54pYdly5a5qv6ku4qXzuuOdy63cwZzfZmsvBFRvId2+/btHcrI7zeX0wGXiSb1uq1CpOKclZWVFBcXJ33PqqurKS0t9WUMmJMXSzqvO97gwXXr1jmW0bZt2/YFZFMI5IDGI3ITJyfeuaqqqjxNBSCJKR7jxo0zW7du9XzeWPF1MnHORNNCnMTPab9/SUmJo/3iTfEoLi5O+Bszcd3xpoM4meIRK45URUVF3PhKyU5lytQUj7wR0datWzsUSts5OGvXru1w7lUyImqbedvOGaqrq+swCFiQzrl+/fqE+1VVVcWcE7V27dqE5+zowUn0W8vKyszMmTNNQ0ODmTlzZsz5Z+m87o4EHw1c1566urqEwdpi/S6JKOAiMsaYqqoq3yfYJiMFr594b9FMnNONACsqKkxFRYWj6IQdRVSsq6tzFd0w09ftJMJkWVnZvnM5+U2x5CURZYGIElXPskVEiWaXZ+KcqZD8Lbfc4ig93YRbjTfjPF3XnWjGfjpeRkEXUV71mlVWVlJVVeVp37Vr1/pyDePGjYvbUOpkXy8N5+k4Z21tbYfBw5wwefJkx3Oi3MwtjNcwnK7r7t69O/X19XEnFDuluLiYurq6rIkdJBEleGA6ioDXPuFnzpzpW8KXlpbS2NjoWgy33HKL516ldJyze/fuNDY2xg1Z4fQBcyPampqahGFL2hKvtymd111eXk5TU5Pnl2FZWRmNjY05G300b6pmbYvJEydOdFTtalsE9qNqFt1+/fr1jtoCKioq4gYzC8I54zVgO2noj7Z1dNSb58eqGMXFxR3+pnRed0NDg+OVSUpKShwHfMvWqpnlUkT7F6dCIRYvXsxZZ52VlWbdsGED9fX1ByxuV1lZSXV1dVKloClTpsQM81lRUbHf27mpqWnfNbRf7DA6TiXI5+xo/Et9fT0bNmzY7/zdu3fft5hjZWWlL4scRM/V2Nh4QFqWlpbuFxY1SNcdzYPRBR3blmKjY4eCPu9y6dKlnHPOOYTD4WQdk5kSUS6TiTdTJs4phBqrhRBqrBZCCIlICCERCSGERCSEkIiEEEIiEkJIREII4QeKWZ0i4o2GTWXA9EycUwiJKOAiSvfQ/GyYDiCEqmZCCIlICCEkIiGERCSEEBKREEIiEkIIiUgIIREJIYREJISQiIQQQiISQkhEQggRC016FflK+6VuLN0SiUiITAmo/d8lJIlIiLQLSEKSiIQIjIAkJIlIiMAIKBeFFPj2MIlISEDuj2tl+X0I3G+RiIQElDtSMtn6WyQiIQH5f34rS397xn6LRCQkoPRfm5VFv7XDcxtjkpaVRCQkIP2GjCMRCT28QiISQvIREpGQgIREJIQEJCQiIQEJiUhIPkJIREICEhKRkHyEkIiEBCQkIiH5CCERCclHSERCAhJCIhISkJCIhOQjhBZYFEJIREIIIREJISQiIYSQiIQQEpHIGrTiqZCIhBASkRBCSERCCIlICCEkIiGERBQXy1JnihD5jGVZSc9DlIiEEKnCsaDciKgl1h+bm5t1u4XIY/bs3mOFTUznOJaDGxF92P4P4XCYjz/6WCkhRB6zZcsWiC2izakQ0Sux/vjyKy8rJYTIY9auXevKGcmKqDHmHxsbCYfDSg0h8pBwOGytWLki3tdLUiGip4BPDlDeK6/Q2NioFBEiD2loaOCVV2IWfD5JlYheBV5o/8c9e/Zw9913K0WEyEPuuusu9uzZE+ur1RFn+C6iVuCJWF888sgjzJkzR6kiRB7x4P89aM2dOzfe1wsjznCE20FAvYEXI//dj169etGwtIFjv36sUih3UQB9YVePXnnVGnb2MDZvjtkx9j4wmBg97X6UiIgc+PZYX2zevJkLRl/Ai2teVCoJkcO8uOZFq6q6Kp6EAGa4kRBAgZfrAEYCR7b/YuvWrdTPq+fII46krKxMKSZEjlFbW2uNHz+eTZs2xdukCbicOAOg/RTRXmAd8B2gc/svP//8c+rq63j99dcpLi6mb9++mgYiRBYTDoetxYsXWz/72c+s3/3ud3z++efxNt0BXAxscHuOZAwxDqhNtEFRURFlZWWcftrpnHjiiRxx5BEUFRUpZbMUY4zaiPKElpYW6+OPPmbt2rWsWLmCdevWsXfv3o52qwFmeTlfskWVicAtLo5jUIOnENmA5eK5DgPXA9OTOVmyjAPuAg5S2gmRd+wArgH+ksxBCny4kHXASuB44CilixB5w/PAJcQZX5huEQFsjBhxF3AMcKjSSIic5R3gD8DVwHt+1QP9pg8wGjgXGAocrnQTIuv5BFiFPed0PrDJz4Onsl+9EzAAGBb5HA/0IkaXvxAicOzBjif0Cvbk1SXA67gIdiaEEEIIIYQQQgghhBBCCCGEEEIIIYQQQgghhBDCDf8f+SuXS9D5BoQAAAAASUVORK5CYII=;" vertex="1" parent="1">
                    <mxGeometry x="30" y="290" width="54.98" height="80" as="geometry"/>
                </mxCell>
                <mxCell id="54" value="" style="shape=image;verticalLabelPosition=bottom;labelBackgroundColor=#ffffff;verticalAlign=top;aspect=fixed;imageAspect=0;image=data:image/png,iVBORw0KGgoAAAANSUhEUgAAASIAAAGmCAYAAADYn4l4AAAACXBIWXMAAAsTAAALEwEAmpwYAAAAB3RJTUUH4QgSBgMM/brVCAAAIABJREFUeNrtnXt8FOW9/9+zSQBRGhREsdgEezgFqyZaEMFLoqgoIAm1trZUCaL11ha059eetscCbT3Vc9oKXvFWQi3HC2ICohQREi6iKErwUu8ClXpBFCiIEJJ9fn/MLg1hdzMzO7s7u/t5v177ErNz23meec9z/T4ghBBCCCGEEEIIIYQQQgghhBBCCCGEEEIIIYQQIvfoDdwErI18bor8TQjlZZGWRJsG7AZMu8+uyHdKRJFNeXlXnLz8B6CXblP2CKj9Z7eEJHIkL0tIWZhosYR0O9BHt1EEgD6R/OglL0tIWSggCUnkioAkpBwQUCwhzZCQRBoFNCNFeVlCykIBxRPSV3TbRQr4SgoFJCEFUkAHdbI/3hJxbyTDlCoZhA+URvLTXk/5sUtSeVlCyoiAig8x/HCMYfWdYVbeFmb8+XZCehfSfUBfJYvwQN9I/vEuoPHnG1beFmbVHWHr6ipDt645KSQrYAL6GXAV0Nn13kccijVhhDHfqoCuXfb/bst2uHeBxcMNsLvZy7W1ALOAG4H1er6EAwH9EhgHFLreu0sn+M6ZcMUoQ8/if/3dGPhiD9ZDDZb500LYss3LtX0B3AXcDGyWiPwSUMkRcPkoQ/WpUNRBmm/eCvc/afHQUtiz16uQZkeE9LaeN9GOfhEBjfUkoM5FcPFZMGGEodehibfd2wL1z8B9Cyw2fpz1QsqkiJISkDWgBOvK0YTPHWgIufwZm7fC3QssHmmwE9Q9YeABCUm0E9AlQMj13kWF8O0z4cpRHQuoPa1hQotftMzd8zGvb8xaIWVCRMmVgAYPgB+MNpz69eSvxB8hPQj8FnhDz2Pe0R/4L+C7aRdQe4yBFa/CvY9bvOApK2ZUSOkUkXcBWRYFw04ifMUoTNlXje9X9tFncO8TEpJIr4CuGGk48jB/r8wYWPsOBfc9YbUufSlrhJQOEXkXUGEBjBoCl480/NuXU3+lH30GM+ZbzF2ejJDmAFMkpJwV0BTgIs8CuvAMuGq0/wKKJaS3N9kv2Ceeg3A40EJKpYi8C6hLJ7iwAmvC+Zijepp05zbrgy2WmTEfHlsBLa3JCOm3wKt6frOe4yIlIG8CKiyAb56OddXo9OdnY2DTJ1C7yOLRRi+dNF8A90SE9GG2iagT8AJwgqu9unXF+v45mEvONRzWLfPZ7/3Ndre/dyEZ4FHg1xJS1groV8C3PD0rEQFxxSjD0RkevmMMfLYDa9Yiyzy4BHbscpuP1wEDgdZUXF6qRHQ99uApZ/TsjnXZ+ZiLzzQHjAEKAu9vtqts855JRkh1wGQJKWsENBUY41lAVafaVbCjAzqg+ZL/tljzpi0o53n4OmB6Ki4nlKKfeayrrVtbMc17Da3hYCba0b3gxssNC282XHiGndHcC/+bwMvAXKBMz3ogKYukz8uR9HInocICuw1o4c2GGy8ProSMgT//3NBwi6FfHzd5eEC2Vc3uAya43qtbVxg3HC45x1B8SHCz6/ub4Y56i/mrvDQCRt8u8yMlpHV6/jNOQURAoz09E6EQjB4K11YHVz5RAYWN3RHz2Ar405MWmz5xc4T7gctzX0RRDu6CNfYcTM15wWgripf/NnxkhWfMJwkhAczDbtReIx9kREDfxW6I/ppXAYWuGk249EgT2F8ZFdCeZqxHl2Fm/tXiw0+9HCnPRBTloE5w8TB7yHvbOTdBFNId9XjsJo2yINIuISFlg4BGnkLo2ursENCu3fDQUpj1lOVxflqeiyhK5yL4VmVqBoClQkgLnnXTCNieJyNVNgkpaAKyLBg1JHsEtHMXPLgUZi2y2LrDjyPnuYiiFBXCmNOC0R2aiHf+AXfOs1i4Olkh/QZ4Tv4IgIDOHwzXVKVnYG0yAjLAtp1YDzxlmb8sdttNn0ciOqoHbN0BXzR7P3pkxHXg6+b+COmpSAlJQpKAEgvos39i/fkpy8xeDJ/vdn+c4kMoqj6NvbP+mgciuvgs+NE3Dfc/afHg08kJKZpRrrrA8O9HBzejvPU+1p3zLLPohWSFNBVYJb+kXkDW8EGYa6qCm6+i8gmH7XhbMxfacyW9PE8RARWdOwg6FbHrol/liYim1NhP46f/xC8hhc4ZSPiqCwzHlgZaSKHb663w4jXJCGlJpMq2TL7xX0ChcwYS/mF1MAXUVj7GEPrHFitc+1eoW+EtvlY7AUXJPxFF8UtIAJXlWFdXpWaWvoSUmwICQucOCraAwsYWUGsY/v6x3QA9f5W3ydlxBIQx7LlnPq1Pv5h2ERWk6NaNBk6K+c1xfaGyfP+/de0Mpx4HF1Xacnxjo9epFLDhI3h0Gax92+LoXtC7R/AyVo9izPmD4awTKfj0n5Z5z9NcwmOAGuAs7PC1G/NUQGOBh4ErgJ6eSkHnDiJ8648MPYqDJyADtLbaz8O7/6DgD3Msc+NfLF7b4H6oSPEhFF18Fl1+fCEFA0qh4MDHv/XFN0mQH9diD8T1ncJgPaBfgp9ebJgwIvkS0jOvwjOvWgzqD9eOMZwyIHiP0bGltN4+0fC3DRTcXu81fswZQCOwHHty7RKVgBwe5Oxv0HpNlQkHsTrfZhS09eb7FjMXYp5aQ6uXcWrxSkABIhhVs3j4WWULspCi/G0D3PqYRWNTMkfJZSH5I6CzTqL1h9XBbE9sWwp6exOhGY97r8IXH0KnMadTeM5AW0AW9rETsPvexwk/9UIetBFVnwY3/cDdXf1sB9z3hITkjmeBG3JESL4IiMpy+PE3g9uhEZXQGxv9E1DnIky7x9yKdUwLjGXxxW1zSZDvcmxA46D+8MNvGgb3R0JKkDjr3rXMXfPwQUhTgUUSUGlwf2kkomJSwzzaCQiwJdT2KTexZdTy2nqa5y6DV95LdIYcHVktITkX0q1z7XYv76zGHhi5KJ8EFPgeVJ8FZDp3OvDpjq5yEzYHVM1aX32PvQ8vdboCyN3YEVezRkS/iWQi5zLwKqQ/PWkxe3F+VNleehvuqLOSFNLzkfRZkLMCOvU4rB9fGGwBAbz1Psx43PvIe6cCiiEhlwKK8ttIdT9rRNQde0rC11zLQELKRyH5JiCuHWM4qV+wy3vJTv1xI6CohCLVMo8CAngTOAXYlk0iAjva3a3Y3ctISCkS0vRHLVa/nsxRXsRemWKBBJSlAnIgodZXPAsI7J7YH5PCIH7pWE6oArs7WUJKFavfgDvrkhVSE3aj9jw67OQNiIAGD4CJ38orAbUdB2QsK3F7kD8C+lXkvynNE+lcYDE5IXmRQT4K6fbHvK70GeXlSAmpPgWZzz8BXTPG/QsqmwXUuShs7GWq2j/ChQc8zW2rYG/83cu5owJK2/ShTCw57V1IJ/azS0hul5vONyE997rdhpS8kH6DHcvZBEJAXkvI2SygohiTH0JWOyn9S0bZJqBMisgfIV1dbTjjeAmpIyFNf9Ri7duZEpJ/Agr6vU6VgKwYj6gxmJC1b7arZSj8Yu2bxsxZZvHOP7JKQEEQUfJCOv4Y+NGFElJHPPOaXWVLTkivRapsToTkj4BO7Ge3AeWTgKJtQMbsL6G2x7XbgcIGwrtferPAzFlm8famZNqAMh7BwQpQciYlJOuaasyZ5UZCSpTtXoG76v0Q0k3A7BhC8k9AXqrguSCgtuKJiqj9sS2LbC8BBVlESQvJGlCCuXaMYdiJsYu0EtK/hHTbXKuD4fwd8Sb2ALfZ2At1SkB+CKi9eCzrX1IyhpbnXzfNc5dZbPgoJwQUZBFFKQN+DnzHi5CsK0cTPu/kMBjLlZDyaXKtf0IiKQF5rWLnmoD2fzLDhE3IhOzFmFufe80W0HpPsaseBn6H3d4XyNHmFsGnN3CLFyHRrw+ha8cQHj7QuC4h5dNctoYmy9xZT5JCkoD8EFCkRBRtjG597m8FzXMaLDZ+7FVA1wEfBVVA2SQiX4TEVVWG808+cOSphLSfkLh1rtfBb64E5KlNL8cFtG+AogWtz75mkhAQwCXEbseTiHwU0jrgcNd79u1td/uPHAwFIQkpHk+/hHVHneW3kKwBJfDjCyWgGE+hiUQta13xsh2Ow92a9LG4GfjPbHmos1FEYIe0ONnz3iVH2CNzR50iISWoHrBkrT0OyVvX8H4CMteOMZx9kqpgsUpAUQHNaYAPPvXr18wDqiWi1NEJeAE4IekjlRyBdeVoTNWpRkKKL6TQojVW+I463ArJcy9mnpSALGNoWb6O5kcb4cNP/f5Vy7F7oCWiFNEHO4RFb/+OeDhcOdrwzdNVQvJDSP362AMR80BAroLStxXQsia7BPTxVi9Xvgfo3ME2zwJDJaLUMQp4PCVHPqqH3YY05jR7WWun5FOQ/0RC8tpLmQ8CsiyssOGLpS9iHlvuVUDrsSMkXOOgaWI1dvwgiShF3AT8zMF2NdjjkL7mSUiXjzJcVBF70qGEZE8wWLoWVr5s56HTTlAJKE47kBUO80XDS5g5y2CLp7hib2KPA5oV+f/ngMESUWapB6pc/LaBwF88CemIQ+0qm4SU3WRAQLasw3yx5EXMYyuSEdD3sYPXtb1wiSgALKPj6R8fRoqubesOpwC1XoVkTRhhzLfPhC6dJCQJKDHNe2lZvIbmx5+x84A3AdVEZBLrwiWiALAKGNLBNk2RhIr19J8C/BlwH9avZ3esH4yUkCSgxAKatxK27vBy5W8DlyYQkEQUIJwkwvMOthkaqea5HxjZszvWZedjvjfMSEg5JCDLguP60vU/x7oT0J5m9i5ew976lbB9p5cr/wR7zM+zOBsJ7dczIBGlWERO3wZ9sGeQX4I9g9wdPb6ENWEk5uIzDV27SEhZXAIqrCij9fzBHNSzuzsB/XU1ex9/1quAwsAD2FELNvn8DLwMDIpTK5CIfMDJqGq3xdJ+2IsPfteTkA7tBpedbxh7NhJSHlTBogKa9wzs2OVVQA9id8V7CQ7ltZ1UIvIJp6OqvdaP+2NHIbzIk5CKD4Hx59lC6tY1c0K64RLDvx8tAfksoPCu3exe+Bw88VwyApoTyWPJBBR32nN8AcFcSDPrReR0VHWyw9uPi7ytxni6R926wrjhMG64yYiQDu0Gf73ZUHxIzjnImj7XMjPmZ0ZAj6+Cz3d7uWwD1EVK3a/6cBucjqXLmomvBVmWD88AfuBguybgoSTOsxl4JPLm6R0pKTmneS88/wY8tNSiea/FgBLo7CDjd+1sLxZ4UaX9knhjI7S0ur/63c1wVE873k8u8dLb8PN7LE8Cuvgsuvz4QgoGlEJBgWMBfVG/nJZpc2Dt27C3xctVzwMuxl5sdLNPd6IL8D0nr7Ykn4O0UZhlWfE0h9u94dP51mH3ZgyMlJBGuNp7xy64vQ5mLrSsS4djaoY7K6X0+BL89GLDhBHeS0gbP7LIklg0jktDK162jFsBeSkB7dxFy4JnaXny2WRKpk9GSkBrUnArmiJtQB3VDA7NlrQNZVledFoyWenzedcAI7F7Kp5yvffnuzF3zYOzrresP86xHPewRIW0+A+Gfn3Id8yn213mbouWzkWO5w2Gd+6iefZidl/zR1rmLvMqoaci+WRkiiQULbE7iZhWlC1pm20lIieG/zDyxkgFzwPDsccg/RoY5lpI9zwOsxdbfHcYXDbCcFi3xPs88xrW7x+yjNuYQCVH5lRpCIBDurrbfusOzD2Ps+vJ57C+dzYHDYrdo7j7H58QWvoSLU+9YFdrvbEEOzD9qjTciWacdctnTUEj2xqrkx1V7Tfel0ACOKgTfPdsmDDC0ONL+3/31vtw84MWz3ho2+zZHZ7475xrrLYamixz9R+97z+gBC45l4P6Hb1PQOE5DbDqNW+N3zaZWhkjp0ZXZ5uIgjqidBj2aqhDPO19UCf49plwxShjNe+1zK2PwbxnvD0cgwfADZca/u3LOVg3M4Qm3m6Fn3ohueMMHmBX15IT0LPADZGSUFCfBYkoT2/+cOxGbW8i7NLJfjD27HW/7/HHwE++k/sDGo2BJ5+HWx9NJrB8MqzGboRepGfBPwoRfrIo8hmFPWjtG6729tI+0a8P1vXfDn5Aet9enRaMHAznDTI8tgLurLdSEGY1Fi9G0nRBNt0tXWjq3kbZFJmuOlJCOsH3I5ccAT/+lmHEycEORpZq9rZgPbgEc88TlseYPx3xcqQEVJ+FtYOsmW+WTTk41dM7UnmPL4y8TZNfSzkaztZtfO1cZ9dumP003LPA8jj9oj2vRdJsLsEcj5VT882ySUTpmt6Ryut/wnPpqGd3uKbKfbTIfGPHLqw/LbTMnxd5nY4RLUmMDPgDnFPzzbLplVqOs5U7tgbsuvsAtwPveJJQ8SHwk28bnv694XvDJKGO6NYVM/FCexDouOFe79cJkfS6PZJ+QcTp7IHTsiHZsklE6Z7ekSylwIxIhr6Wjpd/2Z+Du8APx8DTvzdcMcpdREgBh3WDn481LP694duV7lZlsekcSbd3Iun4lYD9QqezB/pnQ3JlU9UsW4qifYFfAuPw0it5UCcYew5cMTL4AxJXvwELn7P4ck/7YQ/y9b6/GW59zGLBs17HDrVgr6JxI/ayPmqqyFMRBb1xrl9EQGOTEpCTaR+ZJlY8IMuCUUMIXVtNuDTA00uSjWVkC2l2REhvZ/CXdMLumCnvYLusWGgxm0QUtOkdbYu+/4XX6I7ZJqC7H09cqgiFYOQp+SKkh7FDDWeqOSDbhrPkhIiCNr3jOOw5RhfmuoBCGz6ywnfU46paEwrB6KGErhqdHUJqeMnrbPto1MXf4k/QM7+fCYkoR296WURA3qI3ZqOAnngOwmGPB7GFxLXVhqN7BffHJh8dM4zdjvlr7DhWEpFElBIGYo+wHeVp72wT0Iz5MH+VdwG1p7AAqk6Fq0YHV0jGwGc7khWSAeZHSkhrcvyZyEsRZao+fAr2LOsRnvbOpjag9zfDjPkW857xFqJWQmovpIXYU3yel4hyQ0SZmN7hLfiZBORcSN88Heuq0ZijegazDck/IS2OCMnvoGk5s9BitogonWMmkg92JgFJSLGFtBQ7bpVfQdRyZuJrtohoFPC4g+3mYc9498Iw7EbonBeQ9cEWe0mex1ZkTkDtKSqEC8+wq2xHHpbrVbYVkZddskHVcmbia7aIKJXrOA3HboT2Hl0xW0pAH31ml4AeXeZdQJ2LoNvBxA25cVQP2LrD++oX+SWk5yJVNq9B1nJm4mu2rGv2Q5zNmbkZeMtFKeuBiOCO9iSgmvNg2o8Mw06CgzoHW0C/f9ji5/davPwuhI0nARWOHELnn3wHs3krZv2HsbcbOQTumGTwui5bOAyvrofZT1t8+k+LAV+Bgw8K2OvbstegG/p1uOhMPP5WK5LvxgLnAx+5yLtRynE2B/N94GmViJLHryKoFam6/YqOh8Znfwlo81a4e4HFIw1eFwe0BTT8ZIqqTsP60sEA7LmrntalL8Xe/uKzYEqNbTo/Vq4tKrTjeV85ytAroMt0+VdCegm7299pELZ0NFlIRG1IdnpHNDjZDXiNByQB7cOxiKL4IaTORfaxJ4zIByGtw57L1lFQtpyZ+JotIkqmm/I47GV3v54XArr/SYuHlnoLwN+BgDyLKBVCumKUoWdxrgvpb9jLVcebOpIzE19zSURtxxCVAdcBA+h4EGT2C2jLdrh3QcoFlLSI/BRSl07wnTPzRUgvAK8A02JIKScmvuaSiF4EbgMmeW7/yVYBPdzgfYVSFwLaJ6K759H69IveReSnkBItUplbQmrbjjQNuxdsGzkyujpbROTE+mGSiTiZTQLyqYrjVkAYQ8uKl2l+cEni7vuJFxlGneI8uL9fQgp6+vkrpO2RNqRBZN+CElkpIqfTO3JfQJ/tgD89aTF7cXoFFA7TsvIVmh9txPEaYn17w1VVElJqheTmRS4RJYnTngEJKAgCCoqQDu6CNfYczITzgxtyN31Ckoh8wOlYidwT0PadWPcvtMzsxd6XxsmUgBIKqcBhG9J2i/uesHhoSXJCunQ4pmZ4Pgsp8BNfgy4i/xYnzDYB1S5Kbm2uoAjIDyFt2WbZwxIkJI8EfuJrUEVUAHwf+DnwNQkoBwQUNCFddr6hW9d8EVILMB54EGiViDqmE/YyPD/HXpYnGb7g8pEHZYWA/Fid1KuAVrxM89xlyQjoi6jys0pI3brCuOEwbni+CMkA7wL/g70sUrNEdCBdgMuwZ84fnbSA4FZW3fHTbBAQsxZZzFqE5/XaMyugu7AnGoM9efjqpIR09egwI4dYFIQSxKe1rJQI6Ydjghvg338hbcKOaHFfUISUaRF1Ba4C/oNke8WyqQqWOwLa3O67XlkrpEnfMlx6LnTtQlYI6U9PfuH5Hv9LSB9F0vFeYFc+iqg7cA32KOjD80ZAu3bDn5+yM1L2CWgP9tLLN2NHOkhE74iQrsLtUtuuhGRZvlXZLAu+dDCMPy+7hORPCWkL8L/AHZkSkpUhAf2/yL/zS0Az/2qxfWcuCyh1Qhp9ajh2vrUsX9uQokK6fIRh7Nn5KKRpwJ3Y00dyTkTdgZ9gBzjLLwHNfhrue9K7gLp0ovDcQZkS0H3Y4Sg+TPJO9MFu/7vcRyEllpEfQup+CFx2fj4KaTtwO/CHdAkp1SKKthlcAXTLOwH9aaHF1h3eBXTeYIouGJopAd2E/3GO/RZSxzLCWGzZTrJCsq4YhfneMEOXTvkkpJ2R0tEfObA9MGtEdDt2T9hBEpB7ARVWnUrokK7pFlAtdoTAVAda7wP8F1Djg5BMxzKSkJLkC+Ae7DbdrBLRfcCEvBHQ7mas/1timXsX4IuAunVNHJfPXwG1APcD/w38Pc137ivALyJ5pTD1QjL235MV0mHdsK68wJhvn0melZDuwW7vywoR9cEO1p0fAnqkAXPPE1bcsBgd0bmIwvNPobDqVKxuB2MZkw8Cak9ppIQ0zj8hdSAjP4TUoxjrByPzSUgm8vLYlA0iGogdtkMCCq6AZkWqYBsCdmf7Ar/0T0gOZBQV0tk/sTwFl8svIRnsuGBrclJE1oASzL3/EdyQn34LaPjJFI45PRNVsFnYvWDrg32jMyCkT/8J9z1h8eASPAupV3e4crThogp79ZEgs3krTPhfi7c3SUQHZpxqe85RKGBT4Pa2wJxlcPd8i4+3Ji+g9DZCtwCzsRfyC7qAYglpMnAJXqNvRoU0aqhFKGQSyihaYshlIYUNLHgO7qq3WO96VEYeiCiIQspuAYWxF5C8EXib7KZfpISUpJCi+aq9kNpV1fwS0pGH2cH9gyCk5ASUhyIKgpB8FFAGBiKGscM9TM0BAcUS0mTgu/4LyVhx21SSFVLvw+DyUYZvV0JhQTYKKI9FlAkhRQV07wLLswgyFw8olwXUnv7YvWw+C8nEzmB+CunqasOY01IvJH8FJBGlRUgtrVC30k60D7JWQL8F3iC/6I8dvfOipIU0emhiGaVCSN883Xkc78wKKAdFdMShsG2n94UA/RRS9gtoTuRBzDcBtee4SAnJu5D+5+o2pSOTOGP5JaQv97Qbtf0Qkh8C6lwE3Q4mQY9w7ogodO4gwrf+iMKf3k3LouczI6TWMDy2wm4D2vRJtgnIAI8Cvyb+UsT5LKRfAd9ynbctC0qPdJen/BLSV3phXTkaU3WqcS0knwRUOPxkikafRvNDT8dfPDMXRRTFFyE5Xa6mNYw17xnL3FlP0gIafRpWsQQUYCFNBcakTUj7lkBKk5Baw7aAZszzRUBW8cFgDHvumZ+fIkqLkKICuns+bPw4GwVUh91bJAG5oyxSQso6IXHNGMMFQw48byoE1Ob6815EKRES2Il2Z52VxQL6NbBOTklaSFOBKk9iyJSQSo+08/IFQ+xj+iCggnMG0an69Nh5WSJKkZDC4WwsAQHMi5SAJCAJyT4vkDIBSUSkXkgSkIidRydjryKcHUJKpYDasOfuefkhInp2p9N3h9F8rbuXUsqFlFkBLYi8qdfIEWkX0lRgRE4JyYOAMIaWZ16hefbTOdN9XwY0dbjVUT3odNGZNF89OrNCyqyAnoy8mSWgzHIysNrbExQgISUjoDkNOBhLZ4ATU1FiT4WIugOf4nRgmVch/ee9tCx8zruQMi+gqcDzckBgOCWSJudmnZCSEdDcZW6GsoSBHqQgoH6qJm894bq461VIv7yflgWrnAspGQHNbcTzCGybpyIloOf03AcSCxgSSaPMCOn/nnaVl1NcAor1Ah2ZqhufCvoCy/CyfHTnIgpHDaXlRpchr6fUQt2K+InYJiKiq3AcElA+C+nXwLC0CMkYe8rRR5/ZQuogL3sRUPPDS+2XdnOLfT53vA9UkKKYVqmczt4VuBZ7McXD0yGkgv+YQeuCVbF/6Hkn0+WKC7DCJp0CWoI9oG6Vnu2sFdIZwA0pF1JURLt2Y32+2+J/HsL8NXbNveDsb9D5yir3AvLWjPEJaVgFNpTCRNwV+QGlwE8jP8g5e/bSMncZlE2g8Jf3OyvAtLTEzw9h03Fc6HCYluXr2HXdbTTfNjcZCS0BTgXOloSyGhMp2Z8DVALL3R/B2ON/fjbDYuR/Wsx/1p4fFutMrWHY24rV3OLshdmRgB5awq5Lfms/R+4l9EnkuS2NPMcpXYo6lIbEbCukn6RSSKGW1o6zVRwB7b73cXaN/U2yAloeybASUG4KqdIXIZVNsJhSa9EaPiAfJn+lvgjoJ+kSUDqqZomqbFdhr/jpb5XtrOviS6TP4XSd9qP9ZRQOs/v+JwgvfckuFntneaQKtkzPbN5U2c6KpPkZno9SVAgXngH/dYkhFILmvbDzC0I7v7DCl/9v/N6so3rQdfrEAyTW/EhDslWwm4AZ6ZLPftXNDCTiXuDZSJ3zM+Ak4GDHe7eGCb++EWvJS3TCovW4vv/6MS+8iXkv9jD40Clfp2Bgf8DCMoaWFS+z+5ZHME3vxC4qOxfQOOyYQBv1fOYV67FXRVmBHcLWfcdMOAyvbYCFqy2+dDD821F2ySkctqy3/wHv/CP2QzsvgHPlAAAYlUlEQVT4WAoH9t/3/y2vrWfPHXWEl6/jgFKWMwH9Cvh+JD/vzdcE7Qpcj722tnH7sQaUmE5Txhve+LMpOPsb8bcdcYo5qO63ptPEbxmO6mG8nKvNZxVeGy9FrpaQhkXyhbc8ZVmGvr0Nv5kQZuVt4YJRQ+NuW3D2N+y8PGW8sQaU2Pu6P+fmyHPXVckXW0jLvAqJE/vF3+bEfoY+h0tAItVCGo49TMO7kEqOMAzqH3+bQf0Nxx/jVUAmcn0SkAPeSFIYfn+ei2QwIdwIaXXA8nH08x720vCiA4KSgFuBa5QcIgkhXRPJR0GTUbWSJzGdsCfVZVpAE5UUwkchTQT+GSARzYg8ayIOfYAPJCCRo0K6PiBCelvVs8SMypCArtetF1kspGXYc8Hc9D6repaAm1zcyA9IpofCjhJwsm65yKCQTgEW+SAgL80aqp4l4HEPN3Ii7hoEF0UygBBBEdJQl0KK14zgpqNH1bMEuLmRY9rt25GQJCCRDUJ62oGA4k3PcltDUPUsBp2wxzg4uYFvJbB5BVDbZtunIwksRLYIqaKdkGojf+tofqhbEal6FoM+OG/Ac3IDe2HPAxIiW4XUD+iN8wnqbkWk6lkMqpOolgkhvHXeZLx6FgrQDewEnOdw2x0kWrJICOGG8zJdPQuSiL6M84DlW7DHSwghkmcYdjNG3ouoE3ZUw74Ot98ONCv/CHEAezzs82/Yi03mvYh6AW6W7fin8psQMdmajdWzoIhoIDA4DTdbiFznjWysngVBRG4aqZO92ULkOis97pfR6lkQRNQL91EPVyq/CRGTJuDDbKyeZRo3Y4eiE101AEuI+DWMtWRZaJBQAG6a22rZx6jrXoh4NOO9Rzlj1bNMi8jN2CE/brQQ+UAyy8RmpHqWSRG5HTvkx00WQiQmI71nmRSR27FDQojUk5HqWSZF5HbskBAiPaS9epYpEXlppBZCpIdzsdtvc15EXhqpo+xRPhEipc9IX+z227SVijIhIq+N1FE0vUOI1D8jE0hjo3UmRJRsI7WmdwiR+mdkMGlstM6EiJJtpNb0DiHS84zk7JSPTtixpr2u4aTpHUJ0jF+rJadtyke6S0ReJri2RdM7hOiYzZFnJVnSNqYo3SIaGPlxXtH0DiHS+5ykpXqWThH5MXZI0zuESO+zkpYpH+kUUTJjh4QQ/uNkvFFaqmfpElGyY4eEEP7jNPZ7yqtn6RKRJrgKETw+C0r1LF0i8muCq6Z3COEfX2B30We8epYOEfk5wVXTO4Tw9/lfGoTqWTpElOzYobZoeocQ/tUeDgdeDEL1LB0iSnbsUFs0vUMI/2oPvbHHG2W8epZqEflZLfsQe6kUIYR/tYcTglA9S7WI/Bw7pOkdQvhfe/gqsCjT1bNUisjN2CEn9VlN7xDCOU4XWjwUeCHT1bNUisjN2CEnA6s0vUMI5zid+FoU2Taj1bNUisjN2KFtyjdC+IrTGkQosl1Gq2epEpGbRurnVeUSIiW4qUVktHqWKhG5aaR+FDjMwXYaVS1EaqtyGauepUJEbhqp10eqZb0dbKtR1UKktiqXsepZKkTkppH6KaC/w201qloI/7GCUD1LhYjcNFIvwh7H4ASNqhbCf7q0qWZlrHrmt4jcNFKvjhj4UAfbalS1EO5xOt+sV6arZ36LyM0E1/sjBi5ysK1GVQvhHqfzzcozXT3zW0ROJ7iuB56OGNjJNWhUtRDucdquelqbf2ekeuaniNxUy54C/uHi2BpVLYR7nLar9m/30k979cxPEbkZO7RIJRwhUo6b+WZksnrml4jcjB16O/JDo1jKL0KkBDfzzchk9cwvCfTBHiE9WGkvRE4QdlhQeQc4E9gUhBKRX8HxhRDBwKkbfKme+SEiP6MwCiGyj6SrZ36IqBcwWmkhRN5yFkn2nvkhov/A2aRVIURu0g/4ejIHSLaxemIoFJoWDocdns0iZKmTTIigEzYGjKvhewuACzIhou8DDyQsboVCHH/88QwaOIgBxw7g8J6HU1hYqFQWeYUxJqsG5FqWZbW0tPDJlk94/W+v88KaF/jb3/7G3r17O9q1BpiVThGdgj06ulu8DUaMGMHF37mY0047DUulICHIMh/tx8qVK3no4Yd48sknE222A3tQ83PpEFEn7Jnz5bG+7NmzJ7/4+S8YM2aMcp4QARCWnwWB+nn13HjjjWzZsiXeJk3AqcAuN8ct8HAtPwPGxvqiT58+3HvPvVRUVCg3CZGkOCzLSvrfftdG+vfvz9AhQ1m1ahXbt2+PtcmREQmtSGWJqHekNHR0rJLQ7Nmz+fd+/66cJESO89bbbzF27Nh4JaP3sQc4f+j0eG5LRJcC3431xc033cyQIUOUQkLkAT169OCo3kexcOHCWF8XA++x/5zShLgZR1QAnB/rixEjRjBq1CiljhB5ROSZnxPn6/PdFHTciOg4YswnKyoqYuzYsUoVIfKQ2bNnX1RUFDPI6uCIM3wX0TDs+Lb70f9r/RlyiqpkQuQbxhiGnDKE/l+LuRDP4TgPG42b0YVnxtTe4MGeWub37NlDQ0MD7773LgcffDADvzGQ445zJtBdu3axdOlSNv59I926deOkE09yvO/OnTtpbGzct++ggYMYMGCAcpUQLok+94MHD+aVV1+JV3j5o98iKov1x2OPPdb1D3j99df51eRfsWbNmn1/Ky4u5tJLL+X6665PuO+rr77KL37xi/1+eHFxMTU1NUyaOCnhvk3rmrjhhht49dVX99v3iiuu4NprrlXOEsIDCRxwvNNjuOk1u5H2kdwsi7HfG0tJSYnjg3z66aeMv2w8r7322gElpOeff57u3btTXl4ed98Jl0/gzTffPGDf1atX07NnT0444YSY+37wwQdcNuEy3nnnnQP2XbVqFb179+a4rx+nXCWES7Zs2ULdvPpYX3UBfuvkGG7aiLocsLNluZ479sBfHuC9996L//0DD7Bt+7aY383686yE+953333s3Lkz5nczZ85k06b4QeRqa2vj7iuESFCtKiyMN5ndcYwiNyLyZYhmU1PidRLfe+89Nr0fWxjLly9PuO8HH3zAO+++c8Df9+zZQ9O6xOd999132bBhg3KVEP7h2BlJxyMyAVrpJxQKUVhQ6HlfIURmHJD2py9e+0+U/v37U1paGvO7M844I+G+X/7ylznmmGMO+Hvnzp0pL+v4vLH2FUKkoRCR7hNe8v1LEjZuX3nllRxyyCEHWtcYxl06LuG+1026jq5du8b8bvz48fTp0yfuvlddeVXcfYUQOSaiHj16cNedd1FWtv9ogJ49ezJ16lSqq6pjVzYti8MOO4zbb7v9gH179erF1KlTE04zOeqoo7jttts4/rjjD9j3pptu4rzzFP9fiEzhpgH6gIpgKBTigQceYOiQoa5PvGvXLpYvX85bb73FYT0OY8iQIXz1mK962nfo0KEc09dZtWrnzp2sXLmSN958g969ezN48GBKS0qVE4TwyKpnV3HJJZcQJ2S0I8dkTERCCIkoY1UzIYSQiIQQEpEQQkhEQgiJSAghJCIhRO6JSKORhchv/HBAUus/h43hL3/5C8uXLae5uVkpIkSe0alTJ/7+/t8JJ7koZFIDGoUQwg/HqI1ICJFxJCIhhEQkhBASkRAi4yTVaxYKhbj6qqs55qvHsHfvXt1NIfKMoqIi3nv3Pe6acVe82feOSDoMyPOrn+cbA7+hFBEiT3lxzYucPPjkzIYB2f7P7UoJIfIYPxygNiIhRMaRiIQQEpEQQkhEQgiJSAghJCIhhEQkhBASkRBCIhJCCIlICCERCSGERCSEkIiEEEIiEkJIREIIIREJISQiIYSQiIQQEpEQQkhEQgiJSAghJCIhhEQkhBASkRBCIhJCCIlICCERCSGERCSEkIiEEEIiEkJIREIIIREJISQiIYSQiIQQEpEQQkhEQgiJSAghJCIhhEQkhBASkRBCIhJCCIlICCERCSGERCSEkIiEEEIiEkJIREIIIREJISQiIYSQiIQQEpEQQkhEQgiJSAghJCIhhEQkhBASkRBCIhJCiMJMnryxsZHGxkbX+5WWllJeXk55eblSUAiJKHkRTZ061fP+xcXF1NTUMGnSJEpLS5WaQqhqln62b9/O9OnT6du3L1OmTFFqCiERZZapU6dSXl7Otm3blKpCSESZY926dVRWVipV84DKykosyzrgo5KxRBQYGU2aNEkpK0QWURjUC6uoqIj73bJlyxLuO336dDVgCyERJU9H3fq1tbVMmjSJ7du3x/x+ypQp1NbWKoWFUNUsddTU1CSUlZfxSUIIicg15eXlTJw4MeZ3GzduZMOGDUphIVQ1Sz3V1dVMnz495ncbNmzIinaixsZGmpqa9g09SMfI8XSdc8OGDTQ1NdHU1LTvb6WlpZSWlga6hzOd1x09T9sXZ3l5+b40SRVNTU00NjbuywOVlZUZS5OsF5FTamtrY7YZlZeXM23aNN/3j7d9TU0NNTU1gN2ONW3atLjtXCUlJdTU1Djuks7EORNdy7Rp01i3bl3cbYqLi6murmbKlCkdvjAmTZq0nxTa/rv9eWNVy6dNm+boofb7uuOxbds2pk2bRm1tLRs3boy7XTQ9Jk2aRPfu3T3ngba/v76+nkmTJh1w3qlTp1JSUhL4moRp/wmFQmbJkiXGK5MnTzaxjgs4PsbMmTPjHqOhoaHDc1VUVCR1rfH2j7f95MmTzdatW01ZWVnc627/KSkpMWvXrvV8jak8Z3saGhpMSUmJ4/NEPxMnTkx43IqKCtfHjJcX0nndsbjllltMcXGxq/MUFxebmTNnes4D0d8/bty4hOcpKytz/XuWLFliQqFQvGPmfhtR9A2QqA0piFRWViZ848Zq7zrxxBOT6gVMxzlra2s588wzE77h4zF9+vSMjYxP53XX1NRw3XXXxS2RxmP79u2MHz9+X8nWCzU1NcyaNavDpo5MkNUimjZtWtwxRWVlZY6Ksulm6tSproTQlvHjx1NfXx/Ic9bW1jJ+/Pik7s26deuSetC8Sihd1+1EBB0xa9YsR00JsZ4VJ+eWiFw2tEbfLEG7oammpqYm7aWGjs7Z2NjY4cNcVlZGRUVFwoGqAPPmzfP0oHnNR+m67ilTpnQoguh5ysrKEm533XXXxW0jS3R9HVFSUpKxWkRgG6sty/K8b3FxcdZM8xg3bhyVlZX7Gj3r6+upra2NW3Tfvn07kyZNSqqa5vc5E5UGJk6cGHOUe6IBqVOmTKGmpma/Em37B6SpqSnmviUlJTEbkGOVjtNx3WD3wMULd1NcXBxzv2hjdrz9Jk2alNRYuZKSEqqrq/eds76+Pmvie6W1sTqZT6xGvaA0VrdtFFy/fn3Mfbdu3dpho2KsfTNxzkSdBR01rm7dujVuA3FH+8ZrvJ48eXLSnRx+X3e8+1pcXNxhh8DatWt9zQPFxcWmrq7O+Ikaq+O87dPdzuDlbdTY2Bi367d79+7U1tYybty4hHX+IJwzXjf/5MmTO0yH6Dnjtd2kknRd94YNG+JWyZyUQsrLy5k8ebJv96i+vj6QzRY5JaKJEydmxfyy2tpaRw3p06ZNo6SkJG77RqbP2dTUFLenyWnVuLKyMmabSEcTm5Mhndcdr6G/rKzM8eDBeNfkNg9Eq+RBJCdEVFJSQkNDQ9oaOZPBTQbs3r173EzophcsVedM9CAceuihMeMFxfrE+y1uG2TdNFKn67rjnWvdunWOz3PooYf6cn+C3G6atSIqLi6mqqqKuro6NmzYkDUB0dxeZ6Ltnb4RU3XOVPfeper46bzuVJ7LzVik4uLiQDdGB7bXrKGhIe530Tk/2YjbsU1+ZJ5UnTNVJZZUk87rDso9CnqPWGBFpJCvwSdb44On87rdjqDOVwp1C4JNJiYgOj1nZWVlzEbliooKX14kqSr1pvO6KyoqYp5r3LhxiiAqEbnHr0Brbo+TaHunxe1MnDNbg9in67pLS0sV6L8Neb/ktJM6/LZt23zrTl62bJmrUk684QglJSWO235Sdc54pYdly5a5qv6ku4qXzuuOdy63cwZzfZmsvBFRvId2+/btHcrI7zeX0wGXiSb1uq1CpOKclZWVFBcXJ33PqqurKS0t9WUMmJMXSzqvO97gwXXr1jmW0bZt2/YFZFMI5IDGI3ITJyfeuaqqqjxNBSCJKR7jxo0zW7du9XzeWPF1MnHORNNCnMTPab9/SUmJo/3iTfEoLi5O+Bszcd3xpoM4meIRK45URUVF3PhKyU5lytQUj7wR0datWzsUSts5OGvXru1w7lUyImqbedvOGaqrq+swCFiQzrl+/fqE+1VVVcWcE7V27dqE5+zowUn0W8vKyszMmTNNQ0ODmTlzZsz5Z+m87o4EHw1c1566urqEwdpi/S6JKOAiMsaYqqoq3yfYJiMFr594b9FMnNONACsqKkxFRYWj6IQdRVSsq6tzFd0w09ftJMJkWVnZvnM5+U2x5CURZYGIElXPskVEiWaXZ+KcqZD8Lbfc4ig93YRbjTfjPF3XnWjGfjpeRkEXUV71mlVWVlJVVeVp37Vr1/pyDePGjYvbUOpkXy8N5+k4Z21tbYfBw5wwefJkx3Oi3MwtjNcwnK7r7t69O/X19XEnFDuluLiYurq6rIkdJBEleGA6ioDXPuFnzpzpW8KXlpbS2NjoWgy33HKL516ldJyze/fuNDY2xg1Z4fQBcyPampqahGFL2hKvtymd111eXk5TU5Pnl2FZWRmNjY05G300b6pmbYvJEydOdFTtalsE9qNqFt1+/fr1jtoCKioq4gYzC8I54zVgO2noj7Z1dNSb58eqGMXFxR3+pnRed0NDg+OVSUpKShwHfMvWqpnlUkT7F6dCIRYvXsxZZ52VlWbdsGED9fX1ByxuV1lZSXV1dVKloClTpsQM81lRUbHf27mpqWnfNbRf7DA6TiXI5+xo/Et9fT0bNmzY7/zdu3fft5hjZWWlL4scRM/V2Nh4QFqWlpbuFxY1SNcdzYPRBR3blmKjY4eCPu9y6dKlnHPOOYTD4WQdk5kSUS6TiTdTJs4phBqrhRBqrBZCCIlICCERCSGERCSEkIiEEEIiEkJIREII4QeKWZ0i4o2GTWXA9EycUwiJKOAiSvfQ/GyYDiCEqmZCCIlICCEkIiGERCSEEBKREEIiEkIIiUgIIREJIYREJISQiIQQQiISQkhEQggRC016FflK+6VuLN0SiUiITAmo/d8lJIlIiLQLSEKSiIQIjIAkJIlIiMAIKBeFFPj2MIlISEDuj2tl+X0I3G+RiIQElDtSMtn6WyQiIQH5f34rS397xn6LRCQkoPRfm5VFv7XDcxtjkpaVRCQkIP2GjCMRCT28QiISQvIREpGQgIREJIQEJCQiIQEJiUhIPkJIREICEhKRkHyEkIiEBCQkIiH5CCERCclHSERCAhJCIhISkJCIhOQjhBZYFEJIREIIIREJISQiIYSQiIQQEpHIGrTiqZCIhBASkRBCSERCCIlICCEkIiGERBQXy1JnihD5jGVZSc9DlIiEEKnCsaDciKgl1h+bm5t1u4XIY/bs3mOFTUznOJaDGxF92P4P4XCYjz/6WCkhRB6zZcsWiC2izakQ0Sux/vjyKy8rJYTIY9auXevKGcmKqDHmHxsbCYfDSg0h8pBwOGytWLki3tdLUiGip4BPDlDeK6/Q2NioFBEiD2loaOCVV2IWfD5JlYheBV5o/8c9e/Zw9913K0WEyEPuuusu9uzZE+ur1RFn+C6iVuCJWF888sgjzJkzR6kiRB7x4P89aM2dOzfe1wsjznCE20FAvYEXI//dj169etGwtIFjv36sUih3UQB9YVePXnnVGnb2MDZvjtkx9j4wmBg97X6UiIgc+PZYX2zevJkLRl/Ai2teVCoJkcO8uOZFq6q6Kp6EAGa4kRBAgZfrAEYCR7b/YuvWrdTPq+fII46krKxMKSZEjlFbW2uNHz+eTZs2xdukCbicOAOg/RTRXmAd8B2gc/svP//8c+rq63j99dcpLi6mb9++mgYiRBYTDoetxYsXWz/72c+s3/3ud3z++efxNt0BXAxscHuOZAwxDqhNtEFRURFlZWWcftrpnHjiiRxx5BEUFRUpZbMUY4zaiPKElpYW6+OPPmbt2rWsWLmCdevWsXfv3o52qwFmeTlfskWVicAtLo5jUIOnENmA5eK5DgPXA9OTOVmyjAPuAg5S2gmRd+wArgH+ksxBCny4kHXASuB44CilixB5w/PAJcQZX5huEQFsjBhxF3AMcKjSSIic5R3gD8DVwHt+1QP9pg8wGjgXGAocrnQTIuv5BFiFPed0PrDJz4Onsl+9EzAAGBb5HA/0IkaXvxAicOzBjif0Cvbk1SXA67gIdiaEEEIIIYQQQgghhBBCCCGEEEIIIYQQQgghhBDCDf8f+SuXS9D5BoQAAAAASUVORK5CYII=;" vertex="1" parent="1">
                    <mxGeometry x="30" y="406.5" width="54.98" height="80" as="geometry"/>
                </mxCell>
                <mxCell id="55" value="" style="dashed=0;outlineConnect=0;html=1;align=center;labelPosition=center;verticalLabelPosition=bottom;verticalAlign=top;shape=mxgraph.weblogos.chrome" vertex="1" parent="1">
                    <mxGeometry x="60" y="470" width="40" height="40" as="geometry"/>
                </mxCell>
                <mxCell id="56" value="" style="dashed=0;outlineConnect=0;html=1;align=center;labelPosition=center;verticalLabelPosition=bottom;verticalAlign=top;shape=mxgraph.weblogos.chrome" vertex="1" parent="1">
                    <mxGeometry x="60" y="360" width="40" height="40" as="geometry"/>
                </mxCell>
                <mxCell id="57" value="" style="dashed=0;outlineConnect=0;html=1;align=center;labelPosition=center;verticalLabelPosition=bottom;verticalAlign=top;shape=mxgraph.weblogos.chrome" vertex="1" parent="1">
                    <mxGeometry x="60" y="263" width="40" height="40" as="geometry"/>
                </mxCell>
                <mxCell id="58" value="" style="rounded=1;whiteSpace=wrap;html=1;dashed=1;fillColor=none;" vertex="1" parent="1">
                    <mxGeometry x="20" y="40" width="420" height="670" as="geometry"/>
                </mxCell>
                <mxCell id="59" value="もともEC2でcurlで取得していた処理&lt;br&gt;Headless Chromeにリプレイスした" style="ellipse;shape=cloud;whiteSpace=wrap;html=1;fillColor=none;" vertex="1" parent="1">
                    <mxGeometry x="79" y="584" width="311" height="115" as="geometry"/>
                </mxCell>
                <mxCell id="60" value="curlの名残を吸収するためのProxyサーバー" style="shape=callout;whiteSpace=wrap;html=1;perimeter=calloutPerimeter;fillColor=none;" vertex="1" parent="1">
                    <mxGeometry x="250" y="140" width="120" height="80" as="geometry"/>
                </mxCell>
            </root>
        </mxGraphModel>
    </diagram>
</mxfile>